<svg width="111" height="111" viewBox="0 0 111 111" fill="none" xmlns="http://www.w3.org/2000/svg">
<path d="M45.9316 53.8538L52.3834 57.3642L96.9966 39.277L90.5448 35.7666C89.8653 35.3968 88.7727 35.4672 88.3113 35.5486C87.8235 35.6212 87.3476 35.7583 86.896 35.9563L45.9316 53.8538Z" fill="url(#paint0_linear_2398_25505)"/>
<path d="M55.6422 34.054L55.8856 34.1786L49.4338 30.6681C49.3545 30.6257 49.2724 30.5832 49.1875 30.5436C48.4003 30.1785 47.5235 30.0516 46.6651 30.1784C44.8136 30.4388 43.0075 31.7779 41.9147 33.7681C38.8686 39.3055 30.6587 52.3478 26.2905 59.2328L32.7423 62.7432C37.1105 55.8582 45.3204 42.8159 48.3665 37.2643C49.1128 35.867 50.296 34.7524 51.7354 34.0908C51.9379 35.4508 51.7596 36.8403 51.2202 38.1051L57.6805 41.6156C58.9204 38.5581 58.2099 35.2515 55.6422 34.054Z" fill="url(#paint1_linear_2398_25505)"/>
<path d="M55.6422 34.054L55.8856 34.1786L49.4338 30.6681C49.3545 30.6257 49.2724 30.5832 49.1875 30.5436C48.4003 30.1785 47.5235 30.0516 46.6651 30.1784C44.8136 30.4388 43.0075 31.7779 41.9147 33.7681C38.8686 39.3055 30.6587 52.3478 26.2905 59.2328L32.7423 62.7432C37.1105 55.8582 45.3204 42.8159 48.3665 37.2643C49.1128 35.867 50.296 34.7524 51.7354 34.0908C51.9379 35.4508 51.7596 36.8403 51.2202 38.1051L57.6805 41.6156C58.9204 38.5581 58.2099 35.2515 55.6422 34.054Z" fill="url(#paint2_linear_2398_25505)"/>
<path d="M55.6422 34.054L55.8856 34.1786L49.4338 30.6681C49.3545 30.6257 49.2724 30.5832 49.1875 30.5436C48.4003 30.1785 47.5235 30.0516 46.6651 30.1784C44.8136 30.4388 43.0075 31.7779 41.9147 33.7681C38.8686 39.3055 30.6587 52.3478 26.2905 59.2328L32.7423 62.7432C37.1105 55.8582 45.3204 42.8159 48.3665 37.2643C49.1128 35.867 50.296 34.7524 51.7354 34.0908C51.9379 35.4508 51.7596 36.8403 51.2202 38.1051L57.6805 41.6156C58.9204 38.5581 58.2099 35.2515 55.6422 34.054Z" fill="url(#paint3_linear_2398_25505)"/>
<path d="M32.5582 62.0439L32.7422 62.7432L43.2565 102.85L43.6557 104.364L28.6316 110.929L17.5342 68.609L32.5582 62.0439Z" fill="url(#paint4_linear_2398_25505)"/>
<path d="M32.5582 62.0439L32.7422 62.7432L43.2565 102.85L43.6557 104.364L28.6316 110.929L17.5342 68.609L32.5582 62.0439Z" fill="url(#paint5_linear_2398_25505)"/>
<path d="M28.6317 110.929L22.1799 107.419L11.0796 65.1013L17.5342 68.6089L28.6317 110.929Z" fill="url(#paint6_linear_2398_25505)"/>
<path d="M17.5342 68.6089L11.0796 65.1013L26.1064 58.5334L32.5583 62.0439L17.5342 68.6089Z" fill="url(#paint7_linear_2398_25505)"/>
<path d="M60.2451 91.7495C60.3679 91.8818 60.4993 92.0057 60.6386 92.1204C60.4993 92.0057 60.3679 91.8818 60.2451 91.7495V91.7495Z" stroke="black" stroke-width="0.25" stroke-miterlimit="10"/>
<path d="M59.1837 89.878C59.1638 89.8129 59.1469 89.7507 59.1299 89.6855C59.1469 89.7507 59.1638 89.8129 59.1837 89.878Z" stroke="black" stroke-width="0.25" stroke-miterlimit="10"/>
<path d="M59.189 89.8952V89.8782V89.8952Z" stroke="black" stroke-width="0.25" stroke-miterlimit="10"/>
<path d="M59.2456 90.0705C59.2258 90.0139 59.206 89.9545 59.189 89.895C59.206 89.9545 59.2258 90.0139 59.2456 90.0705Z" stroke="black" stroke-width="0.25" stroke-miterlimit="10"/>
<path d="M59.2544 90.0963V90.0708V90.0963Z" stroke="black" stroke-width="0.25" stroke-miterlimit="10"/>
<path d="M59.3167 90.2632C59.294 90.2094 59.2742 90.1528 59.2544 90.0962C59.2742 90.1528 59.294 90.2094 59.3167 90.2632Z" stroke="black" stroke-width="0.25" stroke-miterlimit="10"/>
<path d="M59.3276 90.28V90.2517V90.28Z" stroke="black" stroke-width="0.25" stroke-miterlimit="10"/>
<path d="M59.3956 90.4529C59.3701 90.3991 59.3503 90.3453 59.3276 90.2915C59.3503 90.3453 59.3786 90.3991 59.3956 90.4529Z" stroke="black" stroke-width="0.25" stroke-miterlimit="10"/>
<path d="M59.4072 90.4784V90.4529V90.4784Z" stroke="black" stroke-width="0.25" stroke-miterlimit="10"/>
<path d="M59.4808 90.6368C59.4554 90.5858 59.4299 90.5321 59.4072 90.4783C59.4299 90.5321 59.4554 90.5858 59.4808 90.6368Z" stroke="black" stroke-width="0.25" stroke-miterlimit="10"/>
<path d="M59.4893 90.6568V90.637V90.6568Z" stroke="black" stroke-width="0.25" stroke-miterlimit="10"/>
<path d="M59.5742 90.8181L59.4893 90.6567L59.5742 90.8181Z" stroke="black" stroke-width="0.25" stroke-miterlimit="10"/>
<path d="M59.6623 90.9851L59.5688 90.8237L59.6623 90.9851Z" stroke="black" stroke-width="0.25" stroke-miterlimit="10"/>
<path d="M59.7696 91.1436C59.7356 91.0926 59.7045 91.0417 59.6733 90.9907C59.7045 91.0417 59.7356 91.0926 59.7696 91.1436Z" stroke="black" stroke-width="0.25" stroke-miterlimit="10"/>
<path d="M59.8741 91.2992C59.8429 91.251 59.809 91.2057 59.7778 91.1548C59.809 91.2057 59.8429 91.251 59.8741 91.2992Z" stroke="black" stroke-width="0.25" stroke-miterlimit="10"/>
<path d="M59.8886 91.3163L59.8745 91.2993L59.8886 91.3163Z" stroke="black" stroke-width="0.25" stroke-miterlimit="10"/>
<path d="M59.9901 91.4521L59.8882 91.3162L59.9901 91.4521Z" stroke="black" stroke-width="0.25" stroke-miterlimit="10"/>
<path d="M60.0044 91.4691V91.4521V91.4691Z" stroke="black" stroke-width="0.25" stroke-miterlimit="10"/>
<path d="M60.112 91.5992C60.0752 91.5568 60.0384 91.5143 60.0044 91.469C60.0384 91.5143 60.0752 91.5568 60.112 91.5992Z" stroke="black" stroke-width="0.25" stroke-miterlimit="10"/>
<path d="M60.2279 91.7438C60.1882 91.7013 60.1486 91.6588 60.1118 91.6135C60.1599 91.6588 60.1996 91.6956 60.2279 91.7438Z" stroke="black" stroke-width="0.25" stroke-miterlimit="10"/>
<path d="M60.7946 92.2336L60.6587 92.126L60.7946 92.2336Z" stroke="black" stroke-width="0.25" stroke-miterlimit="10"/>
<path d="M60.9302 92.3439L60.7915 92.2419L60.9302 92.3439Z" stroke="black" stroke-width="0.25" stroke-miterlimit="10"/>
<path d="M61.0775 92.4459L60.9331 92.3496L61.0775 92.4459Z" stroke="black" stroke-width="0.25" stroke-miterlimit="10"/>
<path d="M73.9443 77.6907L73.8027 77.7133L73.9443 77.6907Z" stroke="black" stroke-width="0.25" stroke-miterlimit="10"/>
<path d="M76.6054 3.56999L76.5714 20.8248L70.1196 17.3144L70.1508 0.0595703L76.6054 3.56999Z" fill="url(#paint8_linear_2398_25505)"/>
<path d="M76.5715 20.8249L69.0127 21.8893L62.5581 18.3789L70.1197 17.3145L76.5715 20.8249Z" fill="url(#paint9_linear_2398_25505)"/>
<path d="M53.0373 15.1545L64.3187 25.765L57.8641 22.2546L46.5854 11.644L53.0373 15.1545Z" fill="url(#paint10_linear_2398_25505)"/>
<path d="M70.1508 0.0595703L70.1197 17.3144L62.5581 18.3789L62.5921 1.12119L70.1508 0.0595703Z" fill="url(#paint11_linear_2398_25505)"/>
<path d="M64.3188 25.7648L58.9625 32.2846L52.5107 28.7741L57.8641 22.2544L64.3188 25.7648Z" fill="url(#paint12_linear_2398_25505)"/>
<path d="M92.5553 9.60278L97.8889 14.6221L86.5649 28.409L81.2285 23.3925L92.5553 9.60278Z" fill="url(#paint13_linear_2398_25505)"/>
<path d="M86.5646 28.409L80.1099 24.8986L74.7764 19.8821L81.2282 23.3925L86.5646 28.409Z" fill="url(#paint14_linear_2398_25505)"/>
<path d="M81.2282 23.3924L74.7764 19.882L86.1003 6.09229L92.5549 9.6027L81.2282 23.3924Z" fill="url(#paint15_linear_2398_25505)"/>
<path d="M46.5857 11.644L57.8644 22.2546L52.511 28.7743L41.2295 18.1666L46.5857 11.644Z" fill="url(#paint16_linear_2398_25505)"/>
<path d="M53.1196 33.6887C53.978 33.5622 54.8547 33.6892 55.642 34.0539C58.2097 35.2514 58.9203 38.558 57.669 41.6154C56.0893 45.4712 52.5732 56.7697 52.3864 57.3642L93.3507 39.4667C93.8022 39.2681 94.2782 39.131 94.7662 39.0591C97.1131 38.7307 99.2589 40.1065 99.9072 42.5751C100.683 45.5335 99.0042 48.942 96.159 50.1848L78.4314 57.9304C78.182 57.9995 77.9379 58.0866 77.701 58.1908L67.6737 62.5704C64.9021 63.782 63.2658 67.0999 64.0217 69.9847C64.653 72.391 66.7451 73.7329 69.0297 73.413C69.355 73.3659 69.6753 73.2891 69.9866 73.1837L66.4988 74.7096C64.0047 75.7996 62.3656 78.4748 62.3684 81.136C62.3693 81.6603 62.4358 82.1824 62.5666 82.6902C63.2489 85.2805 65.5023 86.7215 67.9596 86.3704C68.1224 86.3485 68.284 86.3182 68.4437 86.2799C67.5189 86.8719 66.7564 87.6852 66.225 88.6461C65.6936 89.607 65.4102 90.6853 65.4004 91.7833C65.3995 92.261 65.4604 92.7367 65.5816 93.1988C66.1478 95.3871 67.9568 96.6809 70.0036 96.6129L57.8926 101.904C56.1584 102.669 54.3277 103.193 52.4515 103.461C50.653 103.72 48.8261 103.712 47.0302 103.436L43.2593 102.852L32.7422 62.7431C37.1104 55.8581 45.3202 42.8158 48.3664 37.2642C49.4705 35.2882 51.2653 33.9435 53.1196 33.6887Z" fill="url(#paint17_linear_2398_25505)"/>
<path d="M53.1196 33.6887C53.978 33.5622 54.8547 33.6892 55.642 34.0539C58.2097 35.2514 58.9203 38.558 57.669 41.6154C56.0893 45.4712 52.5732 56.7697 52.3864 57.3642L93.3507 39.4667C93.8022 39.2681 94.2782 39.131 94.7662 39.0591C97.1131 38.7307 99.2589 40.1065 99.9072 42.5751C100.683 45.5335 99.0042 48.942 96.159 50.1848L78.4314 57.9304C78.182 57.9995 77.9379 58.0866 77.701 58.1908L67.6737 62.5704C64.9021 63.782 63.2658 67.0999 64.0217 69.9847C64.653 72.391 66.7451 73.7329 69.0297 73.413C69.355 73.3659 69.6753 73.2891 69.9866 73.1837L66.4988 74.7096C64.0047 75.7996 62.3656 78.4748 62.3684 81.136C62.3693 81.6603 62.4358 82.1824 62.5666 82.6902C63.2489 85.2805 65.5023 86.7215 67.9596 86.3704C68.1224 86.3485 68.284 86.3182 68.4437 86.2799C67.5189 86.8719 66.7564 87.6852 66.225 88.6461C65.6936 89.607 65.4102 90.6853 65.4004 91.7833C65.3995 92.261 65.4604 92.7367 65.5816 93.1988C66.1478 95.3871 67.9568 96.6809 70.0036 96.6129L57.8926 101.904C56.1584 102.669 54.3277 103.193 52.4515 103.461C50.653 103.72 48.8261 103.712 47.0302 103.436L43.2593 102.852L32.7422 62.7431C37.1104 55.8581 45.3202 42.8158 48.3664 37.2642C49.4705 35.2882 51.2653 33.9435 53.1196 33.6887Z" fill="url(#paint18_linear_2398_25505)"/>
<path d="M85.1262 86.2434C85.1254 85.7656 85.0636 85.2899 84.9421 84.8279L68.0638 86.5293C67.1382 87.1204 66.3749 87.9335 65.8434 88.8946C65.3119 89.8557 65.029 90.9345 65.0205 92.0327C65.0196 92.5104 65.0805 92.9862 65.2017 93.4482C65.8217 95.8149 72.4998 99 74.4998 100C75.4998 99.5 75.5658 100.192 75.9998 100L81.3496 92.1205C82.4712 91.5992 83.4216 90.7701 84.0902 89.7296C84.7587 88.6891 85.118 87.4801 85.1262 86.2434Z" fill="url(#paint19_linear_2398_25505)"/>
<path d="M85.1262 86.2434C85.1254 85.7656 85.0636 85.2899 84.9421 84.8279L68.0638 86.5293C67.1382 87.1204 66.3749 87.9335 65.8434 88.8946C65.3119 89.8557 65.029 90.9345 65.0205 92.0327C65.0196 92.5104 65.0805 92.9862 65.2017 93.4482C65.8217 95.8149 72.4998 99 74.4998 100C75.4998 99.5 75.5658 100.192 75.9998 100L81.3496 92.1205C82.4712 91.5992 83.4216 90.7701 84.0902 89.7296C84.7587 88.6891 85.118 87.4801 85.1262 86.2434Z" fill="url(#paint20_linear_2398_25505)"/>
<path d="M85.1262 86.2434C85.1254 85.7656 85.0636 85.2899 84.9421 84.8279L68.0638 86.5293C67.1382 87.1204 66.3749 87.9335 65.8434 88.8946C65.3119 89.8557 65.029 90.9345 65.0205 92.0327C65.0196 92.5104 65.0805 92.9862 65.2017 93.4482C65.8217 95.8149 72.4998 99 74.4998 100C75.4998 99.5 75.5658 100.192 75.9998 100L81.3496 92.1205C82.4712 91.5992 83.4216 90.7701 84.0902 89.7296C84.7587 88.6891 85.118 87.4801 85.1262 86.2434Z" fill="url(#paint21_linear_2398_25505)"/>
<path d="M79.6427 69.0876L80.0787 68.8951L69.6182 73.436L66.1276 74.9591C63.6335 76.049 62 78.7243 62 81.3854C61.9994 81.9098 62.0415 82.4392 62.1982 82.9396C63 85.5 64.5 86 66.5 87C68.1469 87.8234 71.3415 89.5368 71.5 89.5L87.5 82.5C89.9913 81.4072 90.1399 80.6611 90.137 78L90.6466 73.1925L90.5277 73.1019C90.4003 73.017 90.2701 72.9349 90.137 72.8641L83.6852 69.3565C82.7706 68.8631 81.7204 68.6802 80.6929 68.8356H80.5631C80.2065 68.8862 79.9827 68.9688 79.6427 69.0876Z" fill="url(#paint22_linear_2398_25505)"/>
<path d="M79.6427 69.0876L80.0787 68.8951L69.6182 73.436L66.1276 74.9591C63.6335 76.049 62 78.7243 62 81.3854C61.9994 81.9098 62.0415 82.4392 62.1982 82.9396C63 85.5 64.5 86 66.5 87C68.1469 87.8234 71.3415 89.5368 71.5 89.5L87.5 82.5C89.9913 81.4072 90.1399 80.6611 90.137 78L90.6466 73.1925L90.5277 73.1019C90.4003 73.017 90.2701 72.9349 90.137 72.8641L83.6852 69.3565C82.7706 68.8631 81.7204 68.6802 80.6929 68.8356H80.5631C80.2065 68.8862 79.9827 68.9688 79.6427 69.0876Z" fill="url(#paint23_linear_2398_25505)"/>
<path d="M79.6427 69.0876L80.0787 68.8951L69.6182 73.436L66.1276 74.9591C63.6335 76.049 62 78.7243 62 81.3854C61.9994 81.9098 62.0415 82.4392 62.1982 82.9396C63 85.5 64.5 86 66.5 87C68.1469 87.8234 71.3415 89.5368 71.5 89.5L87.5 82.5C89.9913 81.4072 90.1399 80.6611 90.137 78L90.6466 73.1925L90.5277 73.1019C90.4003 73.017 90.2701 72.9349 90.137 72.8641L83.6852 69.3565C82.7706 68.8631 81.7204 68.6802 80.6929 68.8356H80.5631C80.2065 68.8862 79.9827 68.9688 79.6427 69.0876Z" fill="url(#paint24_linear_2398_25505)"/>
<path d="M86.5307 72.4054L86.0976 72.5979C86.4366 72.479 86.7865 72.3937 87.1422 72.3431C89.6023 71.9977 91.853 73.4415 92.5211 76.0234C92.6518 76.5311 92.7184 77.0533 92.7192 77.5776C92.7192 80.2387 91.0829 82.914 88.5888 84.0039L86.3241 84.9891L86.4628 84.9664C88.7134 84.6522 90.7715 85.9714 91.3915 88.3353C91.5116 88.7976 91.5725 89.2732 91.5727 89.7508C91.57 90.9855 91.2172 92.1941 90.5553 93.2364C89.8933 94.2787 88.9494 95.1118 87.833 95.6392L77.9727 99.948C77.5387 100.14 77.0805 100.271 76.6109 100.339C74.3631 100.656 72.305 99.3337 71.685 96.967C71.5638 96.5049 71.5029 96.0292 71.5039 95.5515C71.5125 94.4562 71.7933 93.3804 72.3211 92.4206C72.8489 91.4609 73.607 90.6476 74.5273 90.0537C74.3688 90.0905 74.2046 90.1217 74.0404 90.1443C71.5831 90.4897 69.3325 89.0431 68.6616 86.464C68.5308 85.9563 68.4642 85.4341 68.4634 84.9098C68.4634 82.2487 70.0997 79.5734 72.5938 78.4835L76.0816 76.9604L86.5307 72.4054Z" fill="url(#paint25_linear_2398_25505)"/>
<path d="M86.5307 72.4054L86.0976 72.5979C86.4366 72.479 86.7865 72.3937 87.1422 72.3431C89.6023 71.9977 91.853 73.4415 92.5211 76.0234C92.6518 76.5311 92.7184 77.0533 92.7192 77.5776C92.7192 80.2387 91.0829 82.914 88.5888 84.0039L86.3241 84.9891L86.4628 84.9664C88.7134 84.6522 90.7715 85.9714 91.3915 88.3353C91.5116 88.7976 91.5725 89.2732 91.5727 89.7508C91.57 90.9855 91.2172 92.1941 90.5553 93.2364C89.8933 94.2787 88.9494 95.1118 87.833 95.6392L77.9727 99.948C77.5387 100.14 77.0805 100.271 76.6109 100.339C74.3631 100.656 72.305 99.3337 71.685 96.967C71.5638 96.5049 71.5029 96.0292 71.5039 95.5515C71.5125 94.4562 71.7933 93.3804 72.3211 92.4206C72.8489 91.4609 73.607 90.6476 74.5273 90.0537C74.3688 90.0905 74.2046 90.1217 74.0404 90.1443C71.5831 90.4897 69.3325 89.0431 68.6616 86.464C68.5308 85.9563 68.4642 85.4341 68.4634 84.9098C68.4634 82.2487 70.0997 79.5734 72.5938 78.4835L76.0816 76.9604L86.5307 72.4054Z" fill="url(#paint26_linear_2398_25505)"/>
<path d="M86.5307 72.4054L86.0976 72.5979C86.4366 72.479 86.7865 72.3937 87.1422 72.3431C89.6023 71.9977 91.853 73.4415 92.5211 76.0234C92.6518 76.5311 92.7184 77.0533 92.7192 77.5776C92.7192 80.2387 91.0829 82.914 88.5888 84.0039L86.3241 84.9891L86.4628 84.9664C88.7134 84.6522 90.7715 85.9714 91.3915 88.3353C91.5116 88.7976 91.5725 89.2732 91.5727 89.7508C91.57 90.9855 91.2172 92.1941 90.5553 93.2364C89.8933 94.2787 88.9494 95.1118 87.833 95.6392L77.9727 99.948C77.5387 100.14 77.0805 100.271 76.6109 100.339C74.3631 100.656 72.305 99.3337 71.685 96.967C71.5638 96.5049 71.5029 96.0292 71.5039 95.5515C71.5125 94.4562 71.7933 93.3804 72.3211 92.4206C72.8489 91.4609 73.607 90.6476 74.5273 90.0537C74.3688 90.0905 74.2046 90.1217 74.0404 90.1443C71.5831 90.4897 69.3325 89.0431 68.6616 86.464C68.5308 85.9563 68.4642 85.4341 68.4634 84.9098C68.4634 82.2487 70.0997 79.5734 72.5938 78.4835L76.0816 76.9604L86.5307 72.4054Z" fill="url(#paint27_linear_2398_25505)"/>
<path d="M67.311 62.8311L77.3383 58.4516C77.5752 58.3473 77.8191 58.2602 78.0685 58.1911C78.2831 58.13 78.5016 58.0836 78.7225 58.0523C79.1475 57.9606 80.1768 57.8747 80.8938 58.2646L87.3484 61.775L73 77L65.8842 73.1784C65.7595 73.1103 65.6386 73.0356 65.5218 72.9547C65.4822 72.9292 65.485 72.9292 65.4086 72.8726C65.3321 72.816 65.2529 72.7594 65.1793 72.6971L65.0547 72.5839C64.9896 72.5244 64.9047 72.4423 64.8622 72.3998C64.8197 72.3574 64.7999 72.3347 64.7405 72.2696C64.681 72.2045 64.6244 72.1394 64.5706 72.0686L64.4574 71.9242C64.4036 71.8506 64.3385 71.7544 64.3045 71.7034C64.2726 71.6555 64.2557 71.6277 64.2138 71.5587L64.2054 71.5449C64.1573 71.4656 64.095 71.3496 64.0695 71.2986C64.044 71.2476 64.0129 71.1939 63.9874 71.1401C63.9421 71.0551 63.9025 70.9561 63.8629 70.857C63.8459 70.8088 63.8232 70.7635 63.8062 70.7126C63.7491 70.5595 63.7 70.4036 63.659 70.2455C63.534 69.7683 63.4744 69.2792 63.4746 68.7898C63.4756 66.3206 64.9979 63.8424 67.311 62.8311Z" fill="#C4C4C4"/>
<path d="M67.311 62.8311L77.3383 58.4516C77.5752 58.3473 77.8191 58.2602 78.0685 58.1911C78.2831 58.13 78.5016 58.0836 78.7225 58.0523C79.1475 57.9606 80.1768 57.8747 80.8938 58.2646L87.3484 61.775L73 77L65.8842 73.1784C65.7595 73.1103 65.6386 73.0356 65.5218 72.9547C65.4822 72.9292 65.485 72.9292 65.4086 72.8726C65.3321 72.816 65.2529 72.7594 65.1793 72.6971L65.0547 72.5839C64.9896 72.5244 64.9047 72.4423 64.8622 72.3998C64.8197 72.3574 64.7999 72.3347 64.7405 72.2696C64.681 72.2045 64.6244 72.1394 64.5706 72.0686L64.4574 71.9242C64.4036 71.8506 64.3385 71.7544 64.3045 71.7034C64.2726 71.6555 64.2557 71.6277 64.2138 71.5587L64.2054 71.5449C64.1573 71.4656 64.095 71.3496 64.0695 71.2986C64.044 71.2476 64.0129 71.1939 63.9874 71.1401C63.9421 71.0551 63.9025 70.9561 63.8629 70.857C63.8459 70.8088 63.8232 70.7635 63.8062 70.7126C63.7491 70.5595 63.7 70.4036 63.659 70.2455C63.534 69.7683 63.4744 69.2792 63.4746 68.7898C63.4756 66.3206 64.9979 63.8424 67.311 62.8311Z" fill="url(#paint28_linear_2398_25505)"/>
<path d="M67.311 62.8311L77.3383 58.4516C77.5752 58.3473 77.8191 58.2602 78.0685 58.1911C78.2831 58.13 78.5016 58.0836 78.7225 58.0523C79.1475 57.9606 80.1768 57.8747 80.8938 58.2646L87.3484 61.775L73 77L65.8842 73.1784C65.7595 73.1103 65.6386 73.0356 65.5218 72.9547C65.4822 72.9292 65.485 72.9292 65.4086 72.8726C65.3321 72.816 65.2529 72.7594 65.1793 72.6971L65.0547 72.5839C64.9896 72.5244 64.9047 72.4423 64.8622 72.3998C64.8197 72.3574 64.7999 72.3347 64.7405 72.2696C64.681 72.2045 64.6244 72.1394 64.5706 72.0686L64.4574 71.9242C64.4036 71.8506 64.3385 71.7544 64.3045 71.7034C64.2726 71.6555 64.2557 71.6277 64.2138 71.5587L64.2054 71.5449C64.1573 71.4656 64.095 71.3496 64.0695 71.2986C64.044 71.2476 64.0129 71.1939 63.9874 71.1401C63.9421 71.0551 63.9025 70.9561 63.8629 70.857C63.8459 70.8088 63.8232 70.7635 63.8062 70.7126C63.7491 70.5595 63.7 70.4036 63.659 70.2455C63.534 69.7683 63.4744 69.2792 63.4746 68.7898C63.4756 66.3206 64.9979 63.8424 67.311 62.8311Z" fill="url(#paint29_linear_2398_25505)"/>
<path d="M67.311 62.8311L77.3383 58.4516C77.5752 58.3473 77.8191 58.2602 78.0685 58.1911C78.2831 58.13 78.5016 58.0836 78.7225 58.0523C79.1475 57.9606 80.1768 57.8747 80.8938 58.2646L87.3484 61.775L73 77L65.8842 73.1784C65.7595 73.1103 65.6386 73.0356 65.5218 72.9547C65.4822 72.9292 65.485 72.9292 65.4086 72.8726C65.3321 72.816 65.2529 72.7594 65.1793 72.6971L65.0547 72.5839C64.9896 72.5244 64.9047 72.4423 64.8622 72.3998C64.8197 72.3574 64.7999 72.3347 64.7405 72.2696C64.681 72.2045 64.6244 72.1394 64.5706 72.0686L64.4574 71.9242C64.4036 71.8506 64.3385 71.7544 64.3045 71.7034C64.2726 71.6555 64.2557 71.6277 64.2138 71.5587L64.2054 71.5449C64.1573 71.4656 64.095 71.3496 64.0695 71.2986C64.044 71.2476 64.0129 71.1939 63.9874 71.1401C63.9421 71.0551 63.9025 70.9561 63.8629 70.857C63.8459 70.8088 63.8232 70.7635 63.8062 70.7126C63.7491 70.5595 63.7 70.4036 63.659 70.2455C63.534 69.7683 63.4744 69.2792 63.4746 68.7898C63.4756 66.3206 64.9979 63.8424 67.311 62.8311Z" fill="url(#paint30_linear_2398_25505)"/>
<path d="M75.1192 77.1842C72.8346 77.5041 70.7425 76.1622 70.1112 73.7559C69.3553 70.874 70.9916 67.5532 73.7631 66.3415L83.7905 61.962C84.0274 61.8577 84.2715 61.7707 84.5209 61.7016C84.7355 61.6405 84.954 61.5941 85.1749 61.5628C87.4595 61.2429 89.5516 62.5848 90.1829 64.9912C90.9387 67.8731 89.3024 71.1939 86.5309 72.4055L76.0761 76.9549C75.7648 77.0603 75.4445 77.1371 75.1192 77.1842Z" fill="url(#paint31_linear_2398_25505)"/>
<path d="M75.1192 77.1842C72.8346 77.5041 70.7425 76.1622 70.1112 73.7559C69.3553 70.874 70.9916 67.5532 73.7631 66.3415L83.7905 61.962C84.0274 61.8577 84.2715 61.7707 84.5209 61.7016C84.7355 61.6405 84.954 61.5941 85.1749 61.5628C87.4595 61.2429 89.5516 62.5848 90.1829 64.9912C90.9387 67.8731 89.3024 71.1939 86.5309 72.4055L76.0761 76.9549C75.7648 77.0603 75.4445 77.1371 75.1192 77.1842Z" fill="url(#paint32_linear_2398_25505)"/>
<path d="M75.1192 77.1842C72.8346 77.5041 70.7425 76.1622 70.1112 73.7559C69.3553 70.874 70.9916 67.5532 73.7631 66.3415L83.7905 61.962C84.0274 61.8577 84.2715 61.7707 84.5209 61.7016C84.7355 61.6405 84.954 61.5941 85.1749 61.5628C87.4595 61.2429 89.5516 62.5848 90.1829 64.9912C90.9387 67.8731 89.3024 71.1939 86.5309 72.4055L76.0761 76.9549C75.7648 77.0603 75.4445 77.1371 75.1192 77.1842Z" fill="url(#paint33_linear_2398_25505)"/>
<defs>
<linearGradient id="paint0_linear_2398_25505" x1="89.9998" y1="35" x2="55.4998" y2="53.5" gradientUnits="userSpaceOnUse">
<stop stop-color="#EAB081"/>
<stop offset="1" stop-color="#8E592A"/>
</linearGradient>
<linearGradient id="paint1_linear_2398_25505" x1="31.189" y1="33.6521" x2="42.2354" y2="54.141" gradientUnits="userSpaceOnUse">
<stop stop-color="#5084E6"/>
<stop offset="1" stop-color="#8A3CF9"/>
</linearGradient>
<linearGradient id="paint2_linear_2398_25505" x1="27.5914" y1="32.446" x2="44.7991" y2="54.6802" gradientUnits="userSpaceOnUse">
<stop stop-color="#FFD5A4"/>
<stop offset="1" stop-color="#DF8939"/>
</linearGradient>
<linearGradient id="paint3_linear_2398_25505" x1="53.8923" y1="29.4098" x2="27.4144" y2="35.3763" gradientUnits="userSpaceOnUse">
<stop stop-color="#EAB081"/>
<stop offset="1" stop-color="#8E592A"/>
</linearGradient>
<linearGradient id="paint4_linear_2398_25505" x1="21.5348" y1="67.3226" x2="41.3535" y2="87.3507" gradientUnits="userSpaceOnUse">
<stop stop-color="#5084E6"/>
<stop offset="1" stop-color="#8A3CF9"/>
</linearGradient>
<linearGradient id="paint5_linear_2398_25505" x1="30.5948" y1="62.0439" x2="55.0672" y2="87.365" gradientUnits="userSpaceOnUse">
<stop offset="0.109375" stop-color="#FAE9EA"/>
<stop offset="1" stop-color="#8C9FFF"/>
</linearGradient>
<linearGradient id="paint6_linear_2398_25505" x1="13.7678" y1="70.0498" x2="31.4219" y2="82.8376" gradientUnits="userSpaceOnUse">
<stop stop-color="#5084E6"/>
<stop offset="1" stop-color="#8A3CF9"/>
</linearGradient>
<linearGradient id="paint7_linear_2398_25505" x1="14.3691" y1="59.6214" x2="16.2781" y2="67.3178" gradientUnits="userSpaceOnUse">
<stop stop-color="#5084E6"/>
<stop offset="1" stop-color="#8A3CF9"/>
</linearGradient>
<linearGradient id="paint8_linear_2398_25505" x1="71.113" y1="2.30181" x2="78.4864" y2="6.65734" gradientUnits="userSpaceOnUse">
<stop stop-color="#5084E6"/>
<stop offset="1" stop-color="#8A3CF9"/>
</linearGradient>
<linearGradient id="paint9_linear_2398_25505" x1="64.7043" y1="17.8084" x2="65.3261" y2="21.4107" gradientUnits="userSpaceOnUse">
<stop stop-color="#5084E6"/>
<stop offset="1" stop-color="#8A3CF9"/>
</linearGradient>
<linearGradient id="paint10_linear_2398_25505" x1="49.3014" y1="13.1688" x2="53.3964" y2="22.8948" gradientUnits="userSpaceOnUse">
<stop stop-color="#5084E6"/>
<stop offset="1" stop-color="#8A3CF9"/>
</linearGradient>
<linearGradient id="paint11_linear_2398_25505" x1="66.3544" y1="0.0595703" x2="75.3129" y2="7.24927" gradientUnits="userSpaceOnUse">
<stop stop-color="#ED94FF"/>
<stop offset="0.510182" stop-color="#FAE9EA"/>
<stop offset="1" stop-color="#8C9FFF"/>
</linearGradient>
<linearGradient id="paint12_linear_2398_25505" x1="54.3192" y1="23.3375" x2="57.3589" y2="30.1053" gradientUnits="userSpaceOnUse">
<stop stop-color="#5084E6"/>
<stop offset="1" stop-color="#8A3CF9"/>
</linearGradient>
<linearGradient id="paint13_linear_2398_25505" x1="83.7801" y1="11.6335" x2="90.4911" y2="22.8773" gradientUnits="userSpaceOnUse">
<stop stop-color="#5084E6"/>
<stop offset="1" stop-color="#8A3CF9"/>
</linearGradient>
<linearGradient id="paint14_linear_2398_25505" x1="76.5818" y1="20.8028" x2="78.8888" y2="26.8347" gradientUnits="userSpaceOnUse">
<stop stop-color="#5084E6"/>
<stop offset="1" stop-color="#8A3CF9"/>
</linearGradient>
<linearGradient id="paint15_linear_2398_25505" x1="83.6656" y1="6.09229" x2="90.6191" y2="19.9291" gradientUnits="userSpaceOnUse">
<stop stop-color="#ED94FF"/>
<stop offset="0.510182" stop-color="#FAE9EA"/>
<stop offset="1" stop-color="#8C9FFF"/>
</linearGradient>
<linearGradient id="paint16_linear_2398_25505" x1="49.5469" y1="11.644" x2="56.6612" y2="25.0216" gradientUnits="userSpaceOnUse">
<stop stop-color="#ED94FF"/>
<stop offset="0.510182" stop-color="#FAE9EA"/>
<stop offset="1" stop-color="#8C9FFF"/>
</linearGradient>
<linearGradient id="paint17_linear_2398_25505" x1="66.4191" y1="33.6411" x2="95.6447" y2="88.0873" gradientUnits="userSpaceOnUse">
<stop stop-color="#ED94FF"/>
<stop offset="0.510182" stop-color="#FAE9EA"/>
<stop offset="1" stop-color="#8C9FFF"/>
</linearGradient>
<linearGradient id="paint18_linear_2398_25505" x1="63.8274" y1="34.7404" x2="88.2764" y2="94.9628" gradientUnits="userSpaceOnUse">
<stop stop-color="#F6DFB7"/>
<stop offset="1" stop-color="#E8BF9F"/>
</linearGradient>
<linearGradient id="paint19_linear_2398_25505" x1="68.3237" y1="86.4699" x2="72.3596" y2="97.2958" gradientUnits="userSpaceOnUse">
<stop stop-color="#5084E6"/>
<stop offset="1" stop-color="#8A3CF9"/>
</linearGradient>
<linearGradient id="paint20_linear_2398_25505" x1="65.8382" y1="85.9075" x2="72.9959" y2="98.3756" gradientUnits="userSpaceOnUse">
<stop stop-color="#FFD5A4"/>
<stop offset="1" stop-color="#DF8939"/>
</linearGradient>
<linearGradient id="paint21_linear_2398_25505" x1="82.3713" y1="84.4918" x2="66.3595" y2="89.356" gradientUnits="userSpaceOnUse">
<stop stop-color="#EAB081"/>
<stop offset="1" stop-color="#8E592A"/>
</linearGradient>
<linearGradient id="paint22_linear_2398_25505" x1="66.7064" y1="71.019" x2="72.0202" y2="85.9247" gradientUnits="userSpaceOnUse">
<stop stop-color="#5084E6"/>
<stop offset="1" stop-color="#8A3CF9"/>
</linearGradient>
<linearGradient id="paint23_linear_2398_25505" x1="63.1651" y1="70.2527" x2="72.6928" y2="87.6085" gradientUnits="userSpaceOnUse">
<stop stop-color="#FFD5A4"/>
<stop offset="1" stop-color="#DF8939"/>
</linearGradient>
<linearGradient id="paint24_linear_2398_25505" x1="76" y1="71.5" x2="62.7335" y2="81.9472" gradientUnits="userSpaceOnUse">
<stop stop-color="#EAB081"/>
<stop offset="1" stop-color="#8E592A"/>
</linearGradient>
<linearGradient id="paint25_linear_2398_25505" x1="80.5912" y1="72.2925" x2="92.989" y2="93.0203" gradientUnits="userSpaceOnUse">
<stop stop-color="#ED94FF"/>
<stop offset="0.510182" stop-color="#FAE9EA"/>
<stop offset="1" stop-color="#8C9FFF"/>
</linearGradient>
<linearGradient id="paint26_linear_2398_25505" x1="79.6579" y1="72.7336" x2="90.2285" y2="96.1006" gradientUnits="userSpaceOnUse">
<stop stop-color="#FFBF58"/>
<stop offset="1" stop-color="#FF6B4A"/>
</linearGradient>
<linearGradient id="paint27_linear_2398_25505" x1="79.6579" y1="72.7336" x2="90.2285" y2="96.1006" gradientUnits="userSpaceOnUse">
<stop stop-color="#F6DFB7"/>
<stop offset="1" stop-color="#E8BF9F"/>
</linearGradient>
<linearGradient id="paint28_linear_2398_25505" x1="67.131" y1="60.029" x2="72.6513" y2="73.1299" gradientUnits="userSpaceOnUse">
<stop stop-color="#5084E6"/>
<stop offset="1" stop-color="#8A3CF9"/>
</linearGradient>
<linearGradient id="paint29_linear_2398_25505" x1="64.4456" y1="59.3253" x2="73.6303" y2="74.5098" gradientUnits="userSpaceOnUse">
<stop stop-color="#FFD5A4"/>
<stop offset="1" stop-color="#DF8939"/>
</linearGradient>
<linearGradient id="paint30_linear_2398_25505" x1="79.5" y1="58" x2="64.0273" y2="65.12" gradientUnits="userSpaceOnUse">
<stop stop-color="#EAB081"/>
<stop offset="1" stop-color="#8E592A"/>
</linearGradient>
<linearGradient id="paint31_linear_2398_25505" x1="80.147" y1="61.5161" x2="85.5464" y2="75.1154" gradientUnits="userSpaceOnUse">
<stop stop-color="#ED94FF"/>
<stop offset="0.510182" stop-color="#FAE9EA"/>
<stop offset="1" stop-color="#8C9FFF"/>
</linearGradient>
<linearGradient id="paint32_linear_2398_25505" x1="79.3604" y1="61.7629" x2="83.6977" y2="76.2067" gradientUnits="userSpaceOnUse">
<stop stop-color="#FFBF58"/>
<stop offset="1" stop-color="#FF6B4A"/>
</linearGradient>
<linearGradient id="paint33_linear_2398_25505" x1="79.3604" y1="61.7629" x2="83.6977" y2="76.2067" gradientUnits="userSpaceOnUse">
<stop stop-color="#F6DFB7"/>
<stop offset="1" stop-color="#E8BF9F"/>
</linearGradient>
</defs>
</svg>
