<svg width="45" height="42" viewBox="0 0 45 42" fill="none" xmlns="http://www.w3.org/2000/svg">
<path d="M35.85 0H9.15C4.095 0 0 4.08 0 9.12V37.425C0 41.2875 4.515 43.4025 7.5 40.935L12.8775 36.4875H35.85C40.905 36.4875 45 32.4 45 27.3675V9.12C45 4.08 40.905 0 35.85 0ZM19.875 25.38H12.375C11.13 25.38 10.125 24.375 10.125 23.13C10.125 21.885 11.13 20.88 12.375 20.88H19.875C21.12 20.88 22.125 21.885 22.125 23.13C22.125 24.375 21.12 25.38 19.875 25.38ZM19.875 15.63H12.375C11.13 15.63 10.125 14.625 10.125 13.38C10.125 12.135 11.13 11.13 12.375 11.13H19.875C21.12 11.13 22.125 12.135 22.125 13.38C22.125 14.625 21.12 15.63 19.875 15.63Z" fill="#BDC2FF"/>
</svg>
