<svg width="45" height="45" viewBox="0 0 45 45" fill="none" xmlns="http://www.w3.org/2000/svg">
<g clip-path="url(#clip0_1719_12875)">
<path d="M38.1193 8.65469C35.1627 7.33467 32.0415 6.39818 28.8354 5.86914C28.3974 6.63435 28.0004 7.42125 27.6462 8.22667C24.231 7.72645 20.7583 7.72645 17.343 8.22667C16.9888 7.42125 16.5918 6.63435 16.1538 5.86914C12.946 6.40425 9.82299 7.3429 6.86286 8.66159C0.987458 17.139 -0.605271 25.4059 0.191094 33.5555C3.63151 36.0353 7.48283 37.9208 11.5773 39.13C12.4989 37.9206 13.3147 36.6378 14.016 35.2951C12.6845 34.8104 11.3994 34.2121 10.1757 33.5071C10.4978 33.2793 10.8128 33.0446 11.1172 32.8168C14.6782 34.45 18.5648 35.2967 22.4999 35.2967C26.435 35.2967 30.3216 34.45 33.8826 32.8168C34.1906 33.0619 34.5056 33.2966 34.8241 33.5071C33.5984 34.2139 32.3109 34.8134 30.9768 35.2986C31.6768 36.6409 32.4926 37.9226 33.4154 39.13C37.5134 37.9257 41.3677 36.041 44.8088 33.5589V33.5589C45.7432 24.1081 43.2125 15.9171 38.1193 8.65469ZM15.0247 28.5436C12.8055 28.5436 10.9721 26.5795 10.9721 24.1633C10.9721 21.7471 12.7418 19.7658 15.0176 19.7658C17.2935 19.7658 19.1127 21.7471 19.0738 24.1633C19.0349 26.5795 17.2864 28.5436 15.0247 28.5436ZM29.9751 28.5436C27.7524 28.5436 25.9261 26.5795 25.9261 24.1633C25.9261 21.7471 27.6958 19.7658 29.9751 19.7658C32.2545 19.7658 34.0596 21.7471 34.0207 24.1633C33.9817 26.5795 32.2368 28.5436 29.9751 28.5436Z" fill="#BDC2FF"/>
</g>
<defs>
<clipPath id="clip0_1719_12875">
<rect width="45" height="45" fill="white" transform="translate(0 -0.000488281)"/>
</clipPath>
</defs>
</svg>
