<svg width="45" height="46" viewBox="0 0 45 46" fill="none" xmlns="http://www.w3.org/2000/svg">
<path fill-rule="evenodd" clip-rule="evenodd" d="M3.09253 20.1613C15.1681 14.9001 23.2204 11.4316 27.2493 9.75595C38.7528 4.97131 41.1432 4.1401 42.7011 4.11259C43.0438 4.10661 43.8099 4.19156 44.3062 4.59429C45.0424 5.19169 45.0466 6.48841 44.9649 7.34664C44.3415 13.8966 41.6441 29.7914 40.2719 37.1275C39.6911 40.2316 38.5478 41.2725 37.441 41.3743C35.0356 41.5956 33.209 39.7845 30.8791 38.2574C27.2334 35.8675 25.1738 34.3798 21.6349 32.0478C17.5452 29.3528 20.1964 27.8716 22.5271 25.4508C23.1371 24.8173 33.7356 15.177 33.9408 14.3024C33.9665 14.193 33.9903 13.7853 33.7481 13.5701C33.5059 13.3549 33.1484 13.4283 32.8905 13.4869C32.5248 13.5699 26.7007 17.4195 15.4182 25.0354C13.765 26.1707 12.2677 26.7237 10.9261 26.6948C9.44704 26.6629 6.60214 25.8586 4.48715 25.171C1.89305 24.3279 -0.1687 23.8819 0.0109068 22.4499C0.104432 21.7038 1.13159 20.9411 3.09253 20.1613V20.1613Z" fill="#BDC2FF"/>
</svg>
