<svg width="111" height="111" viewBox="0 0 111 111" fill="none" xmlns="http://www.w3.org/2000/svg">
<g clip-path="url(#clip0_2399_25765)">
<path d="M83.5557 90.9489L87.085 92.8684C86.2582 92.4265 85.3107 92.2637 84.3838 92.404L80.8545 90.4846C81.7814 90.3442 82.7289 90.5071 83.5557 90.9489Z" fill="url(#paint0_linear_2399_25765)"/>
<path d="M30.041 100.043L26.5117 98.1236L80.8546 90.4872L84.3839 92.4066L30.041 100.043Z" fill="url(#paint1_linear_2399_25765)"/>
<path d="M27.3191 110.494L23.7898 108.575C22.3786 107.801 21.4421 106.232 21.4473 104.292C21.4473 101.282 23.7202 98.5211 26.5116 98.1289L30.0409 100.048C27.2469 100.44 24.9817 103.201 24.974 106.212C24.9714 108.147 25.9079 109.72 27.3191 110.494Z" fill="url(#paint2_linear_2399_25765)"/>
<path d="M104.633 40.347L108.162 42.2665C107.904 42.1307 107.609 42.0819 107.321 42.1272L103.792 40.2077C104.08 40.1622 104.375 40.2111 104.633 40.347Z" fill="url(#paint3_linear_2399_25765)"/>
<path d="M105.239 42.4161L101.71 40.4966L103.792 40.2025L107.321 42.122L105.239 42.4161Z" fill="url(#paint4_linear_2399_25765)"/>
<path d="M105.24 42.416L101.71 40.4966L101.494 40.2102L105.023 42.1297L105.24 42.416Z" fill="#FFA91A"/>
<path d="M100.098 43.1385L96.5683 41.2191L92.9487 36.374L96.478 38.2935L100.098 43.1385Z" fill="#FFA91A"/>
<path d="M92.2368 32.6537L88.7075 30.7343L88.7204 30.7136L92.2497 32.6331L92.2368 32.6537Z" fill="#808285"/>
<path d="M92.229 32.6545L92.2424 32.6331L92.229 32.6545Z" fill="#808285"/>
<path d="M88.731 30.7266L92.2577 32.646L96.4784 38.2934L92.9491 36.374L88.731 30.7266Z" fill="#FFA91A"/>
<path d="M100.095 43.1384L96.566 41.219L88.7231 30.7136L92.2499 32.6305L100.095 43.1384Z" fill="url(#paint5_linear_2399_25765)"/>
<path d="M84.3608 45.3494L80.8315 43.43L96.5663 41.219L100.096 43.1384L84.3608 45.3494Z" fill="url(#paint6_linear_2399_25765)"/>
<path d="M94.1202 27.5273L90.5935 25.6105L90.4077 25.3628L93.937 27.2822L94.1202 27.5273Z" fill="#808285"/>
<path d="M89.9563 24.9371L89.8428 24.8674L93.3695 26.7869C93.4082 26.8101 93.4469 26.8307 93.483 26.8565C93.6581 26.9697 93.8118 27.1129 93.937 27.2796L90.4078 25.3576C90.2831 25.192 90.1303 25.0497 89.9563 24.9371Z" fill="#808285"/>
<path d="M65.1403 83.1241L68.667 85.0436C67.3514 84.3377 65.842 84.0787 64.3663 84.3057L60.8371 82.3863C62.3135 82.1591 63.8238 82.4181 65.1403 83.1241Z" fill="#FFA91A"/>
<path d="M65.1403 83.1241L68.667 85.0436C67.3514 84.3377 65.842 84.0787 64.3663 84.3057L60.8371 82.3863C62.3135 82.1591 63.8238 82.4181 65.1403 83.1241Z" fill="url(#paint7_linear_2399_25765)"/>
<path d="M65.1403 83.1241L68.667 85.0436C67.3514 84.3377 65.842 84.0787 64.3663 84.3057L60.8371 82.3863C62.3135 82.1591 63.8238 82.4181 65.1403 83.1241Z" fill="url(#paint8_linear_2399_25765)"/>
<path d="M61.0716 84.7701L57.5449 82.8507L60.8446 82.3863L64.3739 84.3057L61.0716 84.7701Z" fill="#FFA91A"/>
<path d="M61.0716 84.7701L57.5449 82.8507L60.8446 82.3863L64.3739 84.3057L61.0716 84.7701Z" fill="url(#paint9_linear_2399_25765)"/>
<path d="M61.0716 84.7701L57.5449 82.8507L60.8446 82.3863L64.3739 84.3057L61.0716 84.7701Z" fill="url(#paint10_linear_2399_25765)"/>
<path d="M88.8756 24.3542C88.8956 24.3625 88.9146 24.3729 88.9324 24.3852L89.0536 24.4497L89.1156 24.4858L89.3735 24.6277L89.8766 24.8857L92.3997 26.2608L88.873 24.3413L88.8756 24.3542Z" fill="#808285"/>
<path d="M89.8427 24.8675L93.3694 26.7869C93.0305 26.6062 92.6425 26.5393 92.2627 26.596C91.9155 26.6549 91.5853 26.7888 91.2953 26.9884C91.0052 27.188 90.7621 27.4486 90.5832 27.7518L87.0693 25.8324C87.2475 25.529 87.49 25.2683 87.7797 25.0686C88.0694 24.8689 88.3993 24.7351 88.7463 24.6766C89.1227 24.6232 89.5064 24.69 89.8427 24.8675Z" fill="#FFA91A"/>
<path d="M87.0205 33.4974L83.4912 31.578L87.0566 25.8325L90.5833 27.752L87.0205 33.4974Z" fill="#FFA91A"/>
<path d="M79.2163 46.0743L75.687 44.1549L83.4912 31.5779L87.0205 33.4973L79.2163 46.0743Z" fill="url(#paint11_linear_2399_25765)"/>
<path d="M79.2163 46.0743L75.687 44.1549L75.9037 43.8067L79.4304 45.7261L79.2163 46.0743Z" fill="url(#paint12_linear_2399_25765)"/>
<path d="M77.1315 46.3658L73.6022 44.4463L75.6868 44.1548L79.2161 46.0742L77.1315 46.3658Z" fill="url(#paint13_linear_2399_25765)"/>
<path d="M75.5474 50.6098L72.0207 48.6904L72.0232 46.3685L75.5525 48.2879L75.5474 50.6098Z" fill="url(#paint14_linear_2399_25765)"/>
<path d="M82.3454 63.0243L78.8136 61.0997C74.7193 58.8706 72.0052 54.3145 72.0181 48.6878L75.5448 50.6072C75.5371 56.234 78.2486 60.7901 82.3454 63.0243Z" fill="url(#paint15_linear_2399_25765)"/>
<path d="M75.5523 48.2853L72.023 46.3658C72.0235 45.9129 72.1812 45.4742 72.4692 45.1246C72.7571 44.775 73.1575 44.5362 73.6019 44.449L77.1287 46.3684C76.6843 46.4553 76.2839 46.694 75.9963 47.0438C75.7087 47.3935 75.5517 47.8325 75.5523 48.2853Z" fill="url(#paint16_linear_2399_25765)"/>
<path d="M88.8751 24.3541C89.1252 24.4027 89.3662 24.4897 89.5897 24.6121L93.1164 26.5316C92.8933 26.4084 92.6521 26.3213 92.4018 26.2736L88.8751 24.3541Z" fill="url(#paint17_linear_2399_25765)"/>
<path d="M87.9385 24.3257C88.2427 24.2806 88.5524 24.2876 88.8543 24.3464L92.381 26.2658C92.0791 26.207 91.7694 26.2 91.4652 26.2452L87.9385 24.3257Z" fill="url(#paint18_linear_2399_25765)"/>
<path d="M77.7015 28.1853L74.1748 26.2659L87.9385 24.331L91.4678 26.2504L77.7015 28.1853Z" fill="url(#paint19_linear_2399_25765)"/>
<path d="M74.1703 26.2659L77.7021 28.1956C77.0844 30.6544 76.1294 33.0159 74.8642 35.2129L71.335 33.2935C72.6012 31.0937 73.5554 28.7285 74.1703 26.2659Z" fill="#808285"/>
<path d="M91.4551 26.2504C91.975 26.1669 92.5081 26.2445 92.9826 26.4728C93.4572 26.7011 93.8505 27.0691 94.1098 27.5275L93.9266 27.2695C93.8014 27.1028 93.6477 26.9595 93.4726 26.8464C93.1109 26.6143 92.6769 26.5225 92.2523 26.5884C91.9051 26.6472 91.5749 26.7812 91.2848 26.9808C90.9948 27.1804 90.7517 27.4409 90.5728 27.7442L87.0099 33.487L74.8638 35.1949C76.1289 32.9979 77.0839 30.6364 77.7017 28.1776L91.4551 26.2504Z" fill="#808285"/>
<path d="M91.4551 26.2504C91.975 26.1669 92.5081 26.2445 92.9826 26.4728C93.4572 26.7011 93.8505 27.0691 94.1098 27.5275L93.9266 27.2695C93.8014 27.1028 93.6477 26.9595 93.4726 26.8464C93.1109 26.6143 92.6769 26.5225 92.2523 26.5884C91.9051 26.6472 91.5749 26.7812 91.2848 26.9808C90.9948 27.1804 90.7517 27.4409 90.5728 27.7442L87.0099 33.487L74.8638 35.1949C76.1289 32.9979 77.0839 30.6364 77.7017 28.1776L91.4551 26.2504Z" fill="url(#paint20_linear_2399_25765)"/>
<path d="M107.322 42.129C108.191 42.0077 108.895 42.6707 108.893 43.6073V45.9292C108.877 54.6621 102.304 62.6649 94.2131 63.8027L90.1756 64.3703C82.0825 65.508 75.5373 59.3472 75.5528 50.6142V48.2923C75.5515 47.8391 75.7082 47.3995 75.9959 47.0493C76.2835 46.699 76.6842 46.4598 77.1291 46.3729L79.2136 46.0788L79.4303 45.7331C79.645 45.7787 79.866 45.7857 80.0831 45.7537C80.4299 45.6948 80.7598 45.5612 81.0498 45.362C81.3398 45.1629 81.583 44.903 81.7626 44.6005L92.2576 27.6816L102.696 41.6568C102.885 41.9134 103.142 42.1129 103.437 42.2335C103.732 42.3541 104.055 42.3911 104.37 42.3405C104.597 42.3071 104.817 42.2383 105.023 42.1367L105.237 42.4231L107.322 42.129ZM100.098 43.1454L92.2524 32.6375L84.3605 45.3564L100.098 43.1454Z" fill="url(#paint21_linear_2399_25765)"/>
<path d="M79.4304 45.7408C79.6178 45.7794 79.81 45.7899 80.0005 45.7718H80.0831C80.2474 45.7485 80.4085 45.7061 80.5629 45.6454C80.6416 45.614 80.7183 45.5778 80.7925 45.537C80.9082 45.4757 81.0187 45.4049 81.1228 45.3255C81.1924 45.2713 81.2595 45.2145 81.3266 45.1526L81.422 45.0572C81.5494 44.9223 81.6634 44.7754 81.7626 44.6186L92.2576 27.6816L102.696 41.6568C102.772 41.7522 102.905 41.9238 103 42C103.087 42.0799 103.146 42.0861 103.249 42.1433C103.35 42.2021 103.389 42.305 103.5 42.3405C103.536 42.3405 103.645 42.3354 103.684 42.3431C103.876 42.3919 104.303 42.5163 104.5 42.5L104.463 42.3431C104.595 42.319 104.723 42.2818 104.847 42.2322L104.951 42.1883L105.033 42.1522L105.25 42.4386L94.1306 27.55L93.9474 27.292C93.8222 27.1253 93.6685 26.982 93.4934 26.8689C93.1317 26.6368 92.6977 26.545 92.2731 26.6109C91.9259 26.6698 91.5957 26.8037 91.3057 27.0033C91.0156 27.2029 90.7726 27.4635 90.5936 27.7667L79.3839 45.8337L79.4304 45.7408Z" fill="url(#paint22_linear_2399_25765)"/>
<path d="M53.3915 85.8485L49.8647 83.9317L53.9642 83.3538L57.4935 85.2732L53.3915 85.8485Z" fill="#FFA91A"/>
<path d="M50.0889 86.3155L46.5596 84.396L49.8645 83.9316L53.3912 85.8485L50.0889 86.3155Z" fill="url(#paint23_linear_2399_25765)"/>
<path d="M42.0321 98.3584L38.5054 96.439L38.5079 94.1996L42.0372 96.1191L42.0321 98.3584Z" fill="url(#paint24_linear_2399_25765)"/>
<path d="M42.0371 96.1165L38.5078 94.197C38.5078 89.4062 42.1196 85.0178 46.5596 84.3934L50.0863 86.3129C45.6515 86.9372 42.0448 91.3256 42.0371 96.1165Z" fill="url(#paint25_linear_2399_25765)"/>
<path d="M84.384 92.4042C87.1754 92.0121 89.4328 94.1379 89.4277 97.1486C89.4225 100.159 87.1548 102.922 84.3633 103.315L30.0204 110.951C27.229 111.346 24.969 109.22 24.9741 106.207C24.9793 103.193 27.247 100.433 30.0539 100.043L84.384 92.4042Z" fill="url(#paint26_linear_2399_25765)"/>
<path d="M64.3661 84.3058C68.8061 83.6814 72.3948 87.0585 72.387 91.852V94.0913L42.032 98.3688V96.1294C42.032 91.3386 45.6438 86.9502 50.0813 86.3258L61.0665 84.7831L64.3661 84.3058Z" fill="url(#paint27_linear_2399_25765)"/>
<path d="M53.3915 85.8485L49.8647 83.9317L49.9344 46.064L53.4637 47.9834L53.3915 85.8485Z" fill="url(#paint28_linear_2399_25765)"/>
<path d="M61.1412 46.887L61.0715 84.7701L57.4932 85.2732L57.5629 47.7719C58.7788 47.5801 59.976 47.284 61.1412 46.887Z" fill="#808285"/>
<path d="M61.1412 46.887L61.0715 84.7701L57.4932 85.2732L57.5629 47.7719C58.7788 47.5801 59.976 47.284 61.1412 46.887Z" fill="url(#paint29_linear_2399_25765)"/>
<path d="M53.4633 47.9833C54.7308 48.051 56.0018 47.9948 57.2584 47.8156L57.5629 47.7719L57.4932 85.2732L53.3911 85.8484L53.4633 47.9833Z" fill="#808285"/>
<path d="M53.4633 47.9833C54.7308 48.051 56.0018 47.9948 57.2584 47.8156L57.5629 47.7719L57.4932 85.2732L53.3911 85.8484L53.4633 47.9833Z" fill="url(#paint30_linear_2399_25765)"/>
<path d="M34.6975 50.1765L38.2268 52.0959C37.9694 51.9582 37.6743 51.9075 37.3857 51.9514L33.8564 50.032C34.145 49.9881 34.4401 50.0388 34.6975 50.1765Z" fill="#F79219"/>
<path d="M35.2988 52.2453L31.7695 50.3258L33.8567 50.0317L37.3834 51.9512L35.2988 52.2453Z" fill="#F79219"/>
<path d="M33.32 51.9719L29.7959 50.0525C30.1362 50.2346 30.5263 50.3016 30.9078 50.2434C31.1349 50.2107 31.3552 50.1419 31.5605 50.0396L35.0873 51.959C34.8827 52.0609 34.6633 52.1297 34.4371 52.1628C34.0539 52.2207 33.6623 52.1537 33.32 51.9719Z" fill="#F79219"/>
<path d="M29.228 49.5598L32.7547 51.4793C32.9065 51.6812 33.099 51.8491 33.3197 51.972L29.7956 50.0526C29.5731 49.9312 29.3795 49.7631 29.228 49.5598Z" fill="#FFA91A"/>
<path d="M45.9508 45.873L42.4215 43.9536C39.9048 42.5731 37.7552 40.6101 36.1524 38.2288C34.8723 36.3276 33.9248 34.2225 33.3506 32.0035C32.8423 30.0503 32.5907 28.039 32.6024 26.0207C32.6257 13.4025 42.1248 1.83681 53.8143 0.195992L57.3436 2.11285C45.6515 3.75625 36.1524 15.3219 36.1292 27.9376C36.1202 29.9557 36.3717 31.9666 36.8773 33.9204C37.4536 36.1391 38.4018 38.244 39.6817 40.1457C41.2835 42.5285 43.4333 44.4925 45.9508 45.873Z" fill="url(#paint31_linear_2399_25765)"/>
<path d="M65.1245 2.13859L68.6512 4.05803C65.1913 2.20445 61.224 1.52201 57.3436 2.11285L53.8143 0.195992C57.6953 -0.396962 61.6638 0.284626 65.1245 2.13859Z" fill="url(#paint32_linear_2399_25765)"/>
<path d="M30.1571 52.9677L26.6278 51.0483L18.7798 40.543L22.3091 42.4624L30.1571 52.9677Z" fill="#FFA91A"/>
<path d="M58.1999 35.8242L58.218 25.3292L59.2267 25.1873C61.3757 24.8855 63.1223 26.5263 63.1172 28.8482V30.9276C63.1172 33.2495 61.3628 35.3805 59.2138 35.6823L58.1999 35.8242Z" fill="#FFA91A"/>
<path d="M58.1999 35.8242L58.218 25.3292L59.2267 25.1873C61.3757 24.8855 63.1223 26.5263 63.1172 28.8482V30.9276C63.1172 33.2495 61.3628 35.3805 59.2138 35.6823L58.1999 35.8242Z" fill="url(#paint33_linear_2399_25765)"/>
<path d="M51.487 20.0869C51.487 17.765 53.2439 15.634 55.3929 15.3322L56.4017 15.1903L56.3862 23.6059L55.3775 23.7478C53.2284 24.0496 51.4818 22.4062 51.487 20.0869Z" fill="#FFA91A"/>
<path d="M51.487 20.0869C51.487 17.765 53.2439 15.634 55.3929 15.3322L56.4017 15.1903L56.3862 23.6059L55.3775 23.7478C53.2284 24.0496 51.4818 22.4062 51.487 20.0869Z" fill="url(#paint34_linear_2399_25765)"/>
<path d="M57.3436 2.11284C45.6515 3.75623 36.1524 15.3219 36.1291 27.9376C36.1202 29.9557 36.3716 31.9666 36.8773 33.9204C37.4536 36.139 38.4018 38.2439 39.6817 40.1456C41.2082 42.4359 43.2493 44.3372 45.6419 45.6977C48.0345 47.0582 50.7121 47.84 53.4609 47.9808C54.7292 48.0485 56.0011 47.9924 57.2585 47.8131L57.5629 47.7692C58.7789 47.5775 59.976 47.2814 61.1412 46.8843C66.8454 44.9417 71.7523 40.6462 74.874 35.2C76.1392 33.003 77.0942 30.6415 77.7119 28.1827C78.2174 26.1573 78.4772 24.0784 78.4859 21.9909C78.4962 9.36234 69.0357 0.469443 57.3436 2.11284ZM64.9259 18.4823C64.918 18.5148 64.9076 18.5467 64.895 18.5777C64.8795 18.6193 64.8614 18.6598 64.8408 18.699C64.7725 18.8365 64.6779 18.9592 64.5622 19.0602C64.4172 19.1886 64.2379 19.272 64.0462 19.3001C63.8548 19.332 63.6584 19.2908 63.496 19.1847C63.3335 19.0786 63.2168 18.9154 63.169 18.7274C63.1516 18.6666 63.1395 18.6045 63.1329 18.5416C63.1329 18.5081 63.1329 18.4745 63.1329 18.441C63.1329 16.1191 61.3941 14.4783 59.245 14.7801L58.3601 14.9065L58.2363 14.922L58.2208 23.3376L59.2295 23.1957C62.3899 22.7494 64.9595 25.1668 64.9517 28.58V30.6594C64.9517 34.0726 62.3718 37.2097 59.2037 37.6561L58.195 37.7979V38.8867C58.194 39.1513 58.1015 39.4073 57.9332 39.6115C57.7648 39.8156 57.531 39.9551 57.2714 40.0063C57.1521 40.0219 57.0308 40.0108 56.9163 39.9738C56.8019 39.9368 56.697 39.8748 56.6094 39.7924C56.5218 39.7099 56.4535 39.6091 56.4096 39.4971C56.3657 39.385 56.3473 39.2647 56.3555 39.1447V38.0559L55.3468 38.1978C52.1864 38.6416 49.6168 36.2268 49.6246 32.8136C49.6243 32.5495 49.7157 32.2934 49.8832 32.0892C50.0507 31.885 50.2839 31.7453 50.543 31.6939C50.6638 31.6768 50.7869 31.6872 50.9032 31.7242C51.0195 31.7612 51.1259 31.8239 51.2146 31.9077C51.3034 31.9914 51.3721 32.0941 51.4157 32.2081C51.4593 32.322 51.4767 32.4443 51.4666 32.5659C51.4666 34.8878 53.208 36.5261 55.3571 36.2242L56.3658 36.0823L56.3839 25.5873L55.3752 25.7292C52.2148 26.1729 49.6452 23.7582 49.653 20.345C49.6607 16.9318 52.2328 13.7946 55.3984 13.3509L56.4071 13.209V12.1177C56.4068 11.8535 56.4983 11.5975 56.6658 11.3933C56.8333 11.1891 57.0665 11.0494 57.3256 10.998C57.4451 10.9815 57.5669 10.992 57.6819 11.0286C57.7969 11.0653 57.9023 11.1271 57.9903 11.2097C58.0784 11.2923 58.1469 11.3935 58.1907 11.506C58.2346 11.6184 58.2528 11.7393 58.244 11.8597V12.951L59.2527 12.8091C59.7278 12.7434 60.2096 12.7434 60.6846 12.8091C61.3095 12.8957 61.911 13.1053 62.4544 13.4257C62.5318 13.4687 62.6066 13.5151 62.6788 13.565C63.0492 13.8127 63.3834 14.1105 63.6721 14.4499C63.7306 14.517 63.7873 14.5866 63.8424 14.6589C64.0092 14.8772 64.1585 15.1084 64.2887 15.3503C64.3326 15.4303 64.3738 15.5128 64.4151 15.6083C64.7935 16.4235 64.9857 17.3127 64.9775 18.2114C64.9771 18.3127 64.9623 18.4135 64.9337 18.5107" fill="#FFA91A"/>
<path d="M57.3436 2.11284C45.6515 3.75623 36.1524 15.3219 36.1291 27.9376C36.1202 29.9557 36.3716 31.9666 36.8773 33.9204C37.4536 36.139 38.4018 38.2439 39.6817 40.1456C41.2082 42.4359 43.2493 44.3372 45.6419 45.6977C48.0345 47.0582 50.7121 47.84 53.4609 47.9808C54.7292 48.0485 56.0011 47.9924 57.2585 47.8131L57.5629 47.7692C58.7789 47.5775 59.976 47.2814 61.1412 46.8843C66.8454 44.9417 71.7523 40.6462 74.874 35.2C76.1392 33.003 77.0942 30.6415 77.7119 28.1827C78.2174 26.1573 78.4772 24.0784 78.4859 21.9909C78.4962 9.36234 69.0357 0.469443 57.3436 2.11284ZM64.9259 18.4823C64.918 18.5148 64.9076 18.5467 64.895 18.5777C64.8795 18.6193 64.8614 18.6598 64.8408 18.699C64.7725 18.8365 64.6779 18.9592 64.5622 19.0602C64.4172 19.1886 64.2379 19.272 64.0462 19.3001C63.8548 19.332 63.6584 19.2908 63.496 19.1847C63.3335 19.0786 63.2168 18.9154 63.169 18.7274C63.1516 18.6666 63.1395 18.6045 63.1329 18.5416C63.1329 18.5081 63.1329 18.4745 63.1329 18.441C63.1329 16.1191 61.3941 14.4783 59.245 14.7801L58.3601 14.9065L58.2363 14.922L58.2208 23.3376L59.2295 23.1957C62.3899 22.7494 64.9595 25.1668 64.9517 28.58V30.6594C64.9517 34.0726 62.3718 37.2097 59.2037 37.6561L58.195 37.7979V38.8867C58.194 39.1513 58.1015 39.4073 57.9332 39.6115C57.7648 39.8156 57.531 39.9551 57.2714 40.0063C57.1521 40.0219 57.0308 40.0108 56.9163 39.9738C56.8019 39.9368 56.697 39.8748 56.6094 39.7924C56.5218 39.7099 56.4535 39.6091 56.4096 39.4971C56.3657 39.385 56.3473 39.2647 56.3555 39.1447V38.0559L55.3468 38.1978C52.1864 38.6416 49.6168 36.2268 49.6246 32.8136C49.6243 32.5495 49.7157 32.2934 49.8832 32.0892C50.0507 31.885 50.2839 31.7453 50.543 31.6939C50.6638 31.6768 50.7869 31.6872 50.9032 31.7242C51.0195 31.7612 51.1259 31.8239 51.2146 31.9077C51.3034 31.9914 51.3721 32.0941 51.4157 32.2081C51.4593 32.322 51.4767 32.4443 51.4666 32.5659C51.4666 34.8878 53.208 36.5261 55.3571 36.2242L56.3658 36.0823L56.3839 25.5873L55.3752 25.7292C52.2148 26.1729 49.6452 23.7582 49.653 20.345C49.6607 16.9318 52.2328 13.7946 55.3984 13.3509L56.4071 13.209V12.1177C56.4068 11.8535 56.4983 11.5975 56.6658 11.3933C56.8333 11.1891 57.0665 11.0494 57.3256 10.998C57.4451 10.9815 57.5669 10.992 57.6819 11.0286C57.7969 11.0653 57.9023 11.1271 57.9903 11.2097C58.0784 11.2923 58.1469 11.3935 58.1907 11.506C58.2346 11.6184 58.2528 11.7393 58.244 11.8597V12.951L59.2527 12.8091C59.7278 12.7434 60.2096 12.7434 60.6846 12.8091C61.3095 12.8957 61.911 13.1053 62.4544 13.4257C62.5318 13.4687 62.6066 13.5151 62.6788 13.565C63.0492 13.8127 63.3834 14.1105 63.6721 14.4499C63.7306 14.517 63.7873 14.5866 63.8424 14.6589C64.0092 14.8772 64.1585 15.1084 64.2887 15.3503C64.3326 15.4303 64.3738 15.5128 64.4151 15.6083C64.7935 16.4235 64.9857 17.3127 64.9775 18.2114C64.9771 18.3127 64.9623 18.4135 64.9337 18.5107" fill="url(#paint35_linear_2399_25765)"/>
<path d="M57.3255 10.9981C57.4451 10.9816 57.5669 10.992 57.6819 11.0287C57.7969 11.0653 57.9023 11.1272 57.9903 11.2098C58.0783 11.2924 58.1468 11.3936 58.1907 11.5061C58.2346 11.6185 58.2528 11.7393 58.244 11.8597V14.9324L58.2285 23.348V25.3294L58.2104 35.8244V38.8971C58.2095 39.1616 58.117 39.4177 57.9486 39.6218C57.7802 39.826 57.5464 39.9655 57.2868 40.0167C57.1675 40.0323 57.0463 40.0212 56.9318 39.9842C56.8173 39.9472 56.7125 39.8852 56.6248 39.8028C56.5372 39.7203 56.469 39.6195 56.4251 39.5074C56.3812 39.3954 56.3627 39.2751 56.371 39.155V36.0824L56.389 25.5874V23.606L56.4045 15.1904V12.1177C56.4044 11.8532 56.4961 11.5969 56.6642 11.3927C56.8322 11.1884 57.066 11.0489 57.3255 10.9981Z" fill="url(#paint36_linear_2399_25765)"/>
<path d="M59.2321 23.2061C62.3925 22.7598 64.962 25.1772 64.9543 28.5904V30.6698C64.9543 34.083 62.3744 37.2201 59.2063 37.6664L58.1975 37.8083V35.8244L59.2063 35.6773C61.3553 35.3755 63.1071 33.2419 63.1097 30.9226V28.8432C63.1097 26.5213 61.3682 24.8805 59.2192 25.1823L58.2104 25.3242V23.3429L59.2321 23.2061Z" fill="url(#paint37_linear_2399_25765)"/>
<path d="M51.4665 32.566C51.4665 34.8879 53.2079 36.5262 55.357 36.2243L56.3657 36.0824V38.0663L55.357 38.2082C52.1966 38.652 49.627 36.2372 49.6348 32.824C49.6345 32.5599 49.7259 32.3039 49.8934 32.0997C50.061 31.8954 50.2942 31.7557 50.5532 31.7043C50.6723 31.6892 50.7933 31.7006 50.9075 31.7378C51.0216 31.775 51.1261 31.837 51.2134 31.9194C51.3008 32.0018 51.3688 32.1025 51.4125 32.2143C51.4563 32.3261 51.4747 32.4462 51.4665 32.566Z" fill="url(#paint38_linear_2399_25765)"/>
<path d="M49.6606 20.345C49.6606 16.9344 52.2405 13.7947 55.4061 13.3509L56.4148 13.209V15.1904L55.4061 15.3323C53.257 15.6341 51.5053 17.7677 51.5001 20.087C51.495 22.4063 53.2415 24.0497 55.3906 23.7479L56.3993 23.606V25.5874L55.3906 25.7292C52.2122 26.173 49.6426 23.7582 49.6606 20.345Z" fill="url(#paint39_linear_2399_25765)"/>
<path d="M63.1353 18.4514C63.1353 16.1295 61.3965 14.4887 59.2474 14.7905L58.2387 14.9324V12.9511L59.2474 12.8092C62.4104 12.3629 64.9774 14.7802 64.9722 18.1934C64.9718 18.4575 64.8797 18.7132 64.7118 18.9169C64.5438 19.1206 64.3103 19.2597 64.0512 19.3105C63.9321 19.3265 63.8108 19.3158 63.6963 19.2791C63.5818 19.2424 63.477 19.1807 63.3893 19.0985C63.3016 19.0162 63.2333 18.9155 63.1894 18.8036C63.1455 18.6916 63.127 18.5714 63.1353 18.4514Z" fill="url(#paint40_linear_2399_25765)"/>
<path d="M57.3389 4.0968C57.4586 4.08076 57.5804 4.09161 57.6954 4.12857C57.8104 4.16552 57.9157 4.22765 58.0037 4.31043C58.0917 4.39322 58.1601 4.49457 58.2039 4.60712C58.2478 4.71967 58.266 4.84058 58.2573 4.96106C58.257 5.22541 58.165 5.48147 57.9971 5.68563C57.8291 5.88979 57.5956 6.02942 57.3363 6.08074C56.605 6.18338 55.8811 6.33333 55.1692 6.52964C47.672 8.60903 41.6583 15.4741 40.1542 23.6343C40.1154 23.8612 40.0085 24.0708 39.8477 24.2353C39.6868 24.3998 39.4797 24.5115 39.2538 24.5554C39.1946 24.5605 39.135 24.5605 39.0758 24.5554C38.9544 24.5415 38.8374 24.5015 38.733 24.4382C38.6285 24.3748 38.539 24.2896 38.4706 24.1883C38.4022 24.0871 38.3565 23.9722 38.3368 23.8517C38.317 23.7311 38.3235 23.6077 38.356 23.4899C39.1824 19.0592 41.1887 14.9335 44.1633 11.5475C47.1663 8.11369 50.8891 5.70923 54.937 4.58182C55.7271 4.37204 56.5292 4.21007 57.3389 4.0968Z" fill="white" fill-opacity="0.15"/>
<path d="M38.8873 26.5626C39.0066 26.5467 39.1279 26.5574 39.2425 26.5941C39.3571 26.6308 39.4621 26.6924 39.55 26.7746C39.6379 26.8568 39.7064 26.9575 39.7506 27.0694C39.7948 27.1813 39.8137 27.3016 39.8057 27.4217C39.8053 27.6864 39.7129 27.9428 39.5445 28.147C39.376 28.3512 39.1419 28.4906 38.8821 28.5414C38.7628 28.5569 38.6416 28.5458 38.5271 28.5088C38.4126 28.4718 38.3078 28.4099 38.2201 28.3274C38.1325 28.245 38.0643 28.1441 38.0204 28.0321C37.9765 27.9201 37.958 27.7997 37.9663 27.6797C37.9677 27.4159 38.0601 27.1607 38.2279 26.9572C38.3957 26.7537 38.6286 26.6143 38.8873 26.5626Z" fill="white" fill-opacity="0.15"/>
<path d="M30.1571 52.9677L26.6278 51.0483L18.7798 40.543L22.3091 42.4624L30.1571 52.9677Z" fill="url(#paint41_linear_2399_25765)"/>
<path d="M30.1571 52.9677L26.6278 51.0483L18.7798 40.543L22.3091 42.4624L30.1571 52.9677Z" fill="url(#paint42_linear_2399_25765)"/>
<path d="M14.4199 55.1788L10.8906 53.2593L26.628 51.0483L30.1573 52.9678L14.4199 55.1788Z" fill="url(#paint43_linear_2399_25765)"/>
<path d="M14.4199 55.1788L10.8906 53.2593L26.628 51.0483L30.1573 52.9678L14.4199 55.1788Z" fill="url(#paint44_linear_2399_25765)"/>
<path d="M27.5383 41.856L24.0116 39.9366L20.4668 35.1921L23.9961 37.1116L27.5383 41.856Z" fill="#808285"/>
<path d="M20.0154 34.7667C19.9793 34.7409 19.9406 34.7202 19.9019 34.697L23.4286 36.6165C23.4673 36.6397 23.506 36.6603 23.5447 36.6861C23.719 36.7993 23.8719 36.9426 23.9961 37.1092L20.4669 35.1924C20.344 35.0237 20.1909 34.8794 20.0154 34.7667Z" fill="#808285"/>
<path d="M11.8218 54.4227L8.29248 52.5033L18.7901 35.5869L22.3168 37.5064L11.8218 54.4227Z" fill="#F79219"/>
<path d="M32.7576 51.4817L29.2283 49.5622L18.79 35.5869L22.3168 37.5064L32.7576 51.4817Z" fill="#FFA91A"/>
<path d="M18.3387 34.439L21.8654 36.3584L19.8685 35.2723L18.9604 34.7847L18.7463 34.6686C18.6182 34.5774 18.4796 34.502 18.3335 34.4441L18.3387 34.439Z" fill="#808285"/>
<path d="M23.1966 35.845L36.87 33.9204C37.4458 36.1401 38.394 38.2459 39.6744 40.1483L27.5386 41.8691L23.9964 37.1221C23.8721 36.9554 23.7192 36.8122 23.5449 36.699C23.1823 36.4669 22.7474 36.3751 22.322 36.441C21.8713 36.5127 21.452 36.7165 21.1172 37.0266C21.6468 36.3968 22.3845 35.9776 23.1966 35.845Z" fill="#808285"/>
<path d="M23.1966 35.845L36.87 33.9204C37.4458 36.1401 38.394 38.2459 39.6744 40.1483L27.5386 41.8691L23.9964 37.1221C23.8721 36.9554 23.7192 36.8122 23.5449 36.699C23.1823 36.4669 22.7474 36.3751 22.322 36.441C21.8713 36.5127 21.452 36.7165 21.1172 37.0266C21.6468 36.3968 22.3845 35.9776 23.1966 35.845Z" fill="url(#paint45_linear_2399_25765)"/>
<path d="M19.902 34.697L23.4287 36.6165C23.0876 36.4341 22.6965 36.3672 22.3142 36.4256C21.8635 36.4973 21.4442 36.7011 21.1094 37.0112C20.9252 37.1774 20.7662 37.3695 20.6372 37.5814L17.1079 35.6619C17.2386 35.4505 17.3984 35.2586 17.5826 35.0918C17.9168 34.7808 18.3364 34.5768 18.7874 34.5061C19.1698 34.4477 19.5608 34.5147 19.902 34.697Z" fill="url(#paint46_linear_2399_25765)"/>
<path d="M9.49463 55.5555L5.96533 53.6361L17.1156 35.662L20.6449 37.5814L9.49463 55.5555Z" fill="url(#paint47_linear_2399_25765)"/>
<path d="M23.1964 35.8451L19.6697 33.9257L33.3509 32.0037L36.8802 33.9231L23.1964 35.8451Z" fill="url(#paint48_linear_2399_25765)"/>
<path d="M18.3386 34.4391C18.7377 34.1706 19.1915 33.9944 19.6672 33.9231L23.1965 35.8426C22.7199 35.9134 22.2651 36.0896 21.8653 36.3586L18.3386 34.4391Z" fill="url(#paint49_linear_2399_25765)"/>
<path d="M17.5903 35.0918C17.8069 34.8437 18.056 34.6259 18.3308 34.4443L21.8601 36.3637C21.584 36.5446 21.334 36.7625 21.117 37.0113L17.5903 35.0918Z" fill="url(#paint50_linear_2399_25765)"/>
<path d="M37.3833 51.9512C38.2527 51.8299 38.957 52.493 38.9544 53.4295V55.7514C38.9389 64.4843 32.3679 72.4872 24.2748 73.6249L20.2373 74.1925C12.1441 75.3302 5.59636 69.1694 5.61184 60.4365V58.1146C5.61185 57.6608 5.76962 57.2212 6.05814 56.871C6.34666 56.5209 6.74797 56.2819 7.19332 56.1951L9.27787 55.901L9.492 55.5553C9.70663 55.6008 9.92764 55.6078 10.1447 55.5759C10.4913 55.5174 10.821 55.3838 11.1106 55.1846C11.4003 54.9854 11.6429 54.7254 11.8216 54.4227L22.3141 37.5038L32.7523 51.4791C32.9431 51.735 33.2001 51.9339 33.4956 52.0544C33.7912 52.1749 34.114 52.2124 34.4293 52.1627C34.6554 52.1297 34.8749 52.0609 35.0794 51.9589L35.2961 52.2453L37.3833 51.9512ZM14.4222 55.1786L30.1595 52.9677L22.3141 42.4597L14.4248 55.1786" fill="url(#paint51_linear_2399_25765)"/>
<path d="M35.082 51.9718C34.8775 52.0737 34.658 52.1425 34.4319 52.1756C34.1166 52.2252 33.7937 52.1877 33.4982 52.0672C33.2027 51.9468 32.9457 51.7478 32.7549 51.4919L22.3141 37.5038L11.8191 54.4227C11.6404 54.7254 11.3977 54.9854 11.108 55.1846C10.8184 55.3838 10.4888 55.5173 10.1422 55.5759C9.92595 55.6077 9.70576 55.6008 9.492 55.5553L20.6423 37.5811C20.7713 37.3692 20.9303 37.1772 21.1145 37.011C21.4479 36.7018 21.8652 36.498 22.3141 36.4253C22.7395 36.3595 23.1744 36.4512 23.537 36.6833C23.7113 36.7965 23.8642 36.9398 23.9885 37.1064L35.082 51.9718Z" fill="url(#paint52_linear_2399_25765)"/>
<path d="M5.96533 53.636L7.96217 54.7221L8.19178 54.846L8.41882 54.9698L9.08184 55.331C9.21108 55.4202 9.34945 55.4955 9.49463 55.5554L5.96533 53.636Z" fill="#F79219"/>
<path d="M12.4044 72.8485L8.87765 70.9291C4.78077 68.7 2.0693 64.1439 2.07962 58.5198L5.60633 60.4366C5.59601 66.0634 8.31006 70.6195 12.4044 72.8485Z" fill="url(#paint53_linear_2399_25765)"/>
<path d="M9.27745 55.9011L5.74815 53.9817L5.96487 53.636L9.49158 55.5554L9.27745 55.9011Z" fill="url(#paint54_linear_2399_25765)"/>
<path d="M7.19296 56.1954L3.66367 54.2759L5.74815 53.9817L9.27745 55.9011L7.19296 56.1954Z" fill="url(#paint55_linear_2399_25765)"/>
<path d="M5.609 60.4392L2.07962 58.5198L2.08486 56.1979L5.61158 58.1173L5.609 60.4392Z" fill="url(#paint56_linear_2399_25765)"/>
<path d="M5.61157 58.1224L2.08485 56.203C2.08424 55.7495 2.24147 55.3099 2.52956 54.9597C2.81765 54.6095 3.21864 54.3704 3.66374 54.2835L7.19305 56.203C6.7477 56.2898 6.34638 56.5287 6.05786 56.8789C5.76934 57.2291 5.61157 57.6687 5.61157 58.1224Z" fill="url(#paint57_linear_2399_25765)"/>
</g>
<defs>
<linearGradient id="paint0_linear_2399_25765" x1="84.5" y1="91" x2="83.1747" y2="103.917" gradientUnits="userSpaceOnUse">
<stop stop-color="#2C1DDA"/>
<stop offset="1" stop-color="#2058D5"/>
</linearGradient>
<linearGradient id="paint1_linear_2399_25765" x1="84.5" y1="91" x2="83.1747" y2="103.917" gradientUnits="userSpaceOnUse">
<stop stop-color="#2C1DDA"/>
<stop offset="1" stop-color="#2058D5"/>
</linearGradient>
<linearGradient id="paint2_linear_2399_25765" x1="28.0796" y1="98.469" x2="22.2852" y2="108.596" gradientUnits="userSpaceOnUse">
<stop stop-color="#1D5EDA"/>
<stop offset="1" stop-color="#43069A"/>
</linearGradient>
<linearGradient id="paint3_linear_2399_25765" x1="106.925" y1="42.1225" x2="106.152" y2="39.8174" gradientUnits="userSpaceOnUse">
<stop stop-color="#1B77AC"/>
<stop offset="1" stop-color="#25B5BE"/>
</linearGradient>
<linearGradient id="paint4_linear_2399_25765" x1="106.925" y1="42.1225" x2="106.152" y2="39.8174" gradientUnits="userSpaceOnUse">
<stop stop-color="#1B77AC"/>
<stop offset="1" stop-color="#25B5BE"/>
</linearGradient>
<linearGradient id="paint5_linear_2399_25765" x1="97.9148" y1="41.4987" x2="90.7675" y2="34.7747" gradientUnits="userSpaceOnUse">
<stop stop-color="#1B77AC"/>
<stop offset="1" stop-color="#25B5BE"/>
</linearGradient>
<linearGradient id="paint6_linear_2399_25765" x1="96.4019" y1="44.8043" x2="95.4502" y2="40.242" gradientUnits="userSpaceOnUse">
<stop stop-color="#1B77AC"/>
<stop offset="1" stop-color="#25B5BE"/>
</linearGradient>
<linearGradient id="paint7_linear_2399_25765" x1="64.3194" y1="82.373" x2="63.903" y2="85.5068" gradientUnits="userSpaceOnUse">
<stop stop-color="#5084E6"/>
<stop offset="1" stop-color="#8A3CF9"/>
</linearGradient>
<linearGradient id="paint8_linear_2399_25765" x1="66.1287" y1="82.3815" x2="65.8402" y2="85.329" gradientUnits="userSpaceOnUse">
<stop stop-color="#1D5EDA"/>
<stop offset="1" stop-color="#43069A"/>
</linearGradient>
<linearGradient id="paint9_linear_2399_25765" x1="64.3194" y1="82.373" x2="63.903" y2="85.5068" gradientUnits="userSpaceOnUse">
<stop stop-color="#5084E6"/>
<stop offset="1" stop-color="#8A3CF9"/>
</linearGradient>
<linearGradient id="paint10_linear_2399_25765" x1="66.1287" y1="82.3815" x2="65.8402" y2="85.329" gradientUnits="userSpaceOnUse">
<stop stop-color="#1D5EDA"/>
<stop offset="1" stop-color="#43069A"/>
</linearGradient>
<linearGradient id="paint11_linear_2399_25765" x1="84.8474" y1="44.1613" x2="76.6887" y2="37.6049" gradientUnits="userSpaceOnUse">
<stop stop-color="#1B77AC"/>
<stop offset="1" stop-color="#25B5BE"/>
</linearGradient>
<linearGradient id="paint12_linear_2399_25765" x1="84.8474" y1="44.1613" x2="76.6887" y2="37.6049" gradientUnits="userSpaceOnUse">
<stop stop-color="#1B77AC"/>
<stop offset="1" stop-color="#25B5BE"/>
</linearGradient>
<linearGradient id="paint13_linear_2399_25765" x1="80.3652" y1="60.5341" x2="71.0712" y2="55.3057" gradientUnits="userSpaceOnUse">
<stop stop-color="#1B77AC"/>
<stop offset="1" stop-color="#25B5BE"/>
</linearGradient>
<linearGradient id="paint14_linear_2399_25765" x1="80.3652" y1="60.5341" x2="71.0712" y2="55.3057" gradientUnits="userSpaceOnUse">
<stop stop-color="#1B77AC"/>
<stop offset="1" stop-color="#25B5BE"/>
</linearGradient>
<linearGradient id="paint15_linear_2399_25765" x1="80.3652" y1="60.5341" x2="71.0712" y2="55.3057" gradientUnits="userSpaceOnUse">
<stop stop-color="#1B77AC"/>
<stop offset="1" stop-color="#25B5BE"/>
</linearGradient>
<linearGradient id="paint16_linear_2399_25765" x1="80.3652" y1="60.5341" x2="71.0712" y2="55.3057" gradientUnits="userSpaceOnUse">
<stop stop-color="#1B77AC"/>
<stop offset="1" stop-color="#25B5BE"/>
</linearGradient>
<linearGradient id="paint17_linear_2399_25765" x1="88.7935" y1="24.4034" x2="88.4506" y2="28.603" gradientUnits="userSpaceOnUse">
<stop stop-color="#1D5EDA"/>
<stop offset="1" stop-color="#43069A"/>
</linearGradient>
<linearGradient id="paint18_linear_2399_25765" x1="88.7935" y1="24.4034" x2="88.4506" y2="28.603" gradientUnits="userSpaceOnUse">
<stop stop-color="#1D5EDA"/>
<stop offset="1" stop-color="#43069A"/>
</linearGradient>
<linearGradient id="paint19_linear_2399_25765" x1="88.7935" y1="24.4034" x2="88.4506" y2="28.603" gradientUnits="userSpaceOnUse">
<stop stop-color="#1D5EDA"/>
<stop offset="1" stop-color="#43069A"/>
</linearGradient>
<linearGradient id="paint20_linear_2399_25765" x1="93.956" y1="26.1679" x2="91.8889" y2="37.8106" gradientUnits="userSpaceOnUse">
<stop stop-color="#5084E6"/>
<stop offset="1" stop-color="#8A3CF9"/>
</linearGradient>
<linearGradient id="paint21_linear_2399_25765" x1="102.5" y1="59.502" x2="80.76" y2="39.8527" gradientUnits="userSpaceOnUse">
<stop stop-color="#67B8E7"/>
<stop offset="1" stop-color="#67DFE7"/>
</linearGradient>
<linearGradient id="paint22_linear_2399_25765" x1="102.5" y1="59.502" x2="80.76" y2="39.8527" gradientUnits="userSpaceOnUse">
<stop stop-color="#67B8E7"/>
<stop offset="1" stop-color="#67DFE7"/>
</linearGradient>
<linearGradient id="paint23_linear_2399_25765" x1="49.9939" y1="84.3285" x2="44.7314" y2="97.9835" gradientUnits="userSpaceOnUse">
<stop stop-color="#1D5EDA"/>
<stop offset="1" stop-color="#43069A"/>
</linearGradient>
<linearGradient id="paint24_linear_2399_25765" x1="49.9939" y1="84.3285" x2="44.7314" y2="97.9835" gradientUnits="userSpaceOnUse">
<stop stop-color="#1D5EDA"/>
<stop offset="1" stop-color="#43069A"/>
</linearGradient>
<linearGradient id="paint25_linear_2399_25765" x1="49.9939" y1="84.3285" x2="44.7314" y2="97.9835" gradientUnits="userSpaceOnUse">
<stop stop-color="#1D5EDA"/>
<stop offset="1" stop-color="#43069A"/>
</linearGradient>
<linearGradient id="paint26_linear_2399_25765" x1="53.5" y1="76.5" x2="64.6527" y2="108.318" gradientUnits="userSpaceOnUse">
<stop stop-color="#ED94FF"/>
<stop offset="0.60083" stop-color="#FFE7E8"/>
<stop offset="1" stop-color="#8C9FFF"/>
</linearGradient>
<linearGradient id="paint27_linear_2399_25765" x1="53.5" y1="76.5" x2="64.6527" y2="108.318" gradientUnits="userSpaceOnUse">
<stop stop-color="#ED94FF"/>
<stop offset="0.60083" stop-color="#FFE7E8"/>
<stop offset="1" stop-color="#8C9FFF"/>
</linearGradient>
<linearGradient id="paint28_linear_2399_25765" x1="52.6423" y1="47.1583" x2="43.2878" y2="49.2864" gradientUnits="userSpaceOnUse">
<stop stop-color="#1D5EDA"/>
<stop offset="1" stop-color="#43069A"/>
</linearGradient>
<linearGradient id="paint29_linear_2399_25765" x1="61.0793" y1="46.6707" x2="39.6837" y2="57.8517" gradientUnits="userSpaceOnUse">
<stop stop-color="#5084E6"/>
<stop offset="1" stop-color="#8A3CF9"/>
</linearGradient>
<linearGradient id="paint30_linear_2399_25765" x1="61.0793" y1="46.6707" x2="39.6837" y2="57.8517" gradientUnits="userSpaceOnUse">
<stop stop-color="#5084E6"/>
<stop offset="1" stop-color="#8A3CF9"/>
</linearGradient>
<linearGradient id="paint31_linear_2399_25765" x1="68.5329" y1="-0.0348031" x2="67.9704" y2="5.35173" gradientUnits="userSpaceOnUse">
<stop stop-color="#5084E6"/>
<stop offset="1" stop-color="#8A3CF9"/>
</linearGradient>
<linearGradient id="paint32_linear_2399_25765" x1="68.5329" y1="-0.0348031" x2="67.9704" y2="5.35173" gradientUnits="userSpaceOnUse">
<stop stop-color="#5084E6"/>
<stop offset="1" stop-color="#8A3CF9"/>
</linearGradient>
<linearGradient id="paint33_linear_2399_25765" x1="57.3073" y1="1.91724" x2="77.0276" y2="37.0093" gradientUnits="userSpaceOnUse">
<stop stop-color="#ED94FF"/>
<stop offset="0.510182" stop-color="#FAE9EA"/>
<stop offset="1" stop-color="#8C9FFF"/>
</linearGradient>
<linearGradient id="paint34_linear_2399_25765" x1="57.3073" y1="1.91724" x2="77.0276" y2="37.0093" gradientUnits="userSpaceOnUse">
<stop stop-color="#ED94FF"/>
<stop offset="0.510182" stop-color="#FAE9EA"/>
<stop offset="1" stop-color="#8C9FFF"/>
</linearGradient>
<linearGradient id="paint35_linear_2399_25765" x1="57.3073" y1="1.91724" x2="77.0276" y2="37.0093" gradientUnits="userSpaceOnUse">
<stop stop-color="#ED94FF"/>
<stop offset="0.510182" stop-color="#FAE9EA"/>
<stop offset="1" stop-color="#8C9FFF"/>
</linearGradient>
<linearGradient id="paint36_linear_2399_25765" x1="64.8497" y1="10.8293" x2="46.4278" y2="36.3963" gradientUnits="userSpaceOnUse">
<stop stop-color="#2E36FF"/>
<stop offset="1" stop-color="#5713B8"/>
</linearGradient>
<linearGradient id="paint37_linear_2399_25765" x1="64.8497" y1="10.8293" x2="46.4278" y2="36.3963" gradientUnits="userSpaceOnUse">
<stop stop-color="#2E36FF"/>
<stop offset="1" stop-color="#5713B8"/>
</linearGradient>
<linearGradient id="paint38_linear_2399_25765" x1="64.8497" y1="10.8293" x2="46.4278" y2="36.3963" gradientUnits="userSpaceOnUse">
<stop stop-color="#2E36FF"/>
<stop offset="1" stop-color="#5713B8"/>
</linearGradient>
<linearGradient id="paint39_linear_2399_25765" x1="64.8497" y1="10.8293" x2="46.4278" y2="36.3963" gradientUnits="userSpaceOnUse">
<stop stop-color="#2E36FF"/>
<stop offset="1" stop-color="#5713B8"/>
</linearGradient>
<linearGradient id="paint40_linear_2399_25765" x1="64.8497" y1="10.8293" x2="46.4278" y2="36.3963" gradientUnits="userSpaceOnUse">
<stop stop-color="#2E36FF"/>
<stop offset="1" stop-color="#5713B8"/>
</linearGradient>
<linearGradient id="paint41_linear_2399_25765" x1="24" y1="42.5" x2="30.0364" y2="49.9429" gradientUnits="userSpaceOnUse">
<stop stop-color="#E76A35"/>
<stop offset="1" stop-color="#F07F6D"/>
</linearGradient>
<linearGradient id="paint42_linear_2399_25765" x1="24" y1="42.5" x2="27.232" y2="46.2418" gradientUnits="userSpaceOnUse">
<stop stop-color="#FFD5A4"/>
<stop offset="1" stop-color="#DF8939"/>
</linearGradient>
<linearGradient id="paint43_linear_2399_25765" x1="19.7307" y1="51.6989" x2="20.3676" y2="55.6993" gradientUnits="userSpaceOnUse">
<stop stop-color="#F56527"/>
<stop offset="1" stop-color="#FFAEA0"/>
</linearGradient>
<linearGradient id="paint44_linear_2399_25765" x1="19.7307" y1="51.6989" x2="20.0886" y2="53.8102" gradientUnits="userSpaceOnUse">
<stop stop-color="#FFD5A4"/>
<stop offset="1" stop-color="#DF8939"/>
</linearGradient>
<linearGradient id="paint45_linear_2399_25765" x1="39.5261" y1="33.8763" x2="37.8373" y2="44.2347" gradientUnits="userSpaceOnUse">
<stop stop-color="#5084E6"/>
<stop offset="1" stop-color="#8A3CF9"/>
</linearGradient>
<linearGradient id="paint46_linear_2399_25765" x1="13.978" y1="37.8043" x2="19.5117" y2="43.6031" gradientUnits="userSpaceOnUse">
<stop stop-color="#FFD5A4"/>
<stop offset="1" stop-color="#DF8939"/>
</linearGradient>
<linearGradient id="paint47_linear_2399_25765" x1="13.978" y1="37.8043" x2="19.5117" y2="43.6031" gradientUnits="userSpaceOnUse">
<stop stop-color="#FFD5A4"/>
<stop offset="1" stop-color="#DF8939"/>
</linearGradient>
<linearGradient id="paint48_linear_2399_25765" x1="32.4777" y1="32.1414" x2="31.9217" y2="37.5277" gradientUnits="userSpaceOnUse">
<stop stop-color="#1D5EDA"/>
<stop offset="1" stop-color="#43069A"/>
</linearGradient>
<linearGradient id="paint49_linear_2399_25765" x1="32.4777" y1="32.1414" x2="31.9217" y2="37.5277" gradientUnits="userSpaceOnUse">
<stop stop-color="#1D5EDA"/>
<stop offset="1" stop-color="#43069A"/>
</linearGradient>
<linearGradient id="paint50_linear_2399_25765" x1="32.4777" y1="32.1414" x2="31.9217" y2="37.5277" gradientUnits="userSpaceOnUse">
<stop stop-color="#1D5EDA"/>
<stop offset="1" stop-color="#43069A"/>
</linearGradient>
<linearGradient id="paint51_linear_2399_25765" x1="21" y1="37" x2="35.0986" y2="68.7358" gradientUnits="userSpaceOnUse">
<stop stop-color="#FFBF58"/>
<stop offset="1" stop-color="#FF6B4A"/>
</linearGradient>
<linearGradient id="paint52_linear_2399_25765" x1="21" y1="37" x2="35.0986" y2="68.7358" gradientUnits="userSpaceOnUse">
<stop stop-color="#FFBF58"/>
<stop offset="1" stop-color="#FF6B4A"/>
</linearGradient>
<linearGradient id="paint53_linear_2399_25765" x1="2.49951" y1="55" x2="12.3769" y2="61.9933" gradientUnits="userSpaceOnUse">
<stop stop-color="#FFD5A4"/>
<stop offset="1" stop-color="#DF8939"/>
</linearGradient>
<linearGradient id="paint54_linear_2399_25765" x1="2.49951" y1="55" x2="12.3769" y2="61.9933" gradientUnits="userSpaceOnUse">
<stop stop-color="#FFD5A4"/>
<stop offset="1" stop-color="#DF8939"/>
</linearGradient>
<linearGradient id="paint55_linear_2399_25765" x1="2.49951" y1="55" x2="12.3769" y2="61.9933" gradientUnits="userSpaceOnUse">
<stop stop-color="#FFD5A4"/>
<stop offset="1" stop-color="#DF8939"/>
</linearGradient>
<linearGradient id="paint56_linear_2399_25765" x1="2.49951" y1="55" x2="12.3769" y2="61.9933" gradientUnits="userSpaceOnUse">
<stop stop-color="#FFD5A4"/>
<stop offset="1" stop-color="#DF8939"/>
</linearGradient>
<linearGradient id="paint57_linear_2399_25765" x1="2.49951" y1="55" x2="12.3769" y2="61.9933" gradientUnits="userSpaceOnUse">
<stop stop-color="#FFD5A4"/>
<stop offset="1" stop-color="#DF8939"/>
</linearGradient>
<clipPath id="clip0_2399_25765">
<rect width="111" height="111" fill="white"/>
</clipPath>
</defs>
</svg>
