<svg width="18" height="18" viewBox="0 0 18 18" fill="none" xmlns="http://www.w3.org/2000/svg">
<path
    d="M14.34 0H3.66C1.638 0 0 1.632 0 3.648V14.97C0 16.515 1.806 17.361 3 16.374L5.151 14.595H14.34C16.362 14.595 18 12.96 18 10.947V3.648C18 1.632 16.362 0 14.34 0ZM7.95 10.152H4.95C4.452 10.152 4.05 9.75 4.05 9.252C4.05 8.754 4.452 8.352 4.95 8.352H7.95C8.448 8.352 8.85 8.754 8.85 9.252C8.85 9.75 8.448 10.152 7.95 10.152ZM7.95 6.252H4.95C4.452 6.252 4.05 5.85 4.05 5.352C4.05 4.854 4.452 4.452 4.95 4.452H7.95C8.448 4.452 8.85 4.854 8.85 5.352C8.85 5.85 8.448 6.252 7.95 6.252Z"
    fill="white"
  />
</svg>
