<svg width="18" height="17" viewBox="0 0 18 17" fill="none" xmlns="http://www.w3.org/2000/svg">
<path fill-rule="evenodd" clip-rule="evenodd" d="M14.1118 7.08217C12.6984 9.53052 11.2851 11.9789 9.87174 14.4256C9.5684 14.9539 9.75007 15.6272 10.2784 15.9306C10.8067 16.2339 11.4801 16.0522 11.7834 15.5239C12.3834 14.4856 12.9818 13.4489 13.5818 12.4105C13.8851 11.8822 14.5584 11.7005 15.0868 12.0039C15.6151 12.3072 15.7968 12.9805 15.4934 13.5089C15.0018 14.3606 14.5101 15.2139 14.0168 16.0656C14.7551 16.0656 16.4151 16.2256 17.1151 15.8239C17.9601 15.3389 18.2501 14.2606 17.7651 13.4155C16.5468 11.3055 15.3301 9.19218 14.1118 7.08217ZM6.67838 15.5239C6.37505 16.0522 5.70171 16.2339 5.17337 15.9306C4.64503 15.6272 4.46337 14.9539 4.7667 14.4256C5.43004 13.2772 6.09338 12.1272 6.75671 10.9789C7.06005 10.4505 6.87838 9.77719 6.35005 9.47385C5.82171 9.17052 5.14837 9.35218 4.84503 9.88052C3.66669 11.9222 2.48835 13.9639 1.31001 16.0039C0.555004 15.8022 0 15.1139 0 14.2939C0 13.9122 0.121668 13.5572 0.326669 13.2689C2.71169 9.13885 5.09004 5.01382 7.47505 0.882124C7.96339 0.0371183 9.04506 -0.251217 9.89007 0.238786C10.1751 0.403788 10.3951 0.635456 10.5451 0.902124L12.8401 4.87715C10.7884 8.43051 8.72673 11.9789 6.67838 15.5239Z" fill="white"/>
</svg>
