<svg width="18" height="18" viewBox="0 0 18 18" fill="none" xmlns="http://www.w3.org/2000/svg">
<path d="M15.2477 3.51363C14.0651 2.98563 12.8166 2.61103 11.5342 2.39941C11.359 2.7055 11.2002 3.02026 11.0585 3.34243C9.69238 3.14234 8.30331 3.14234 6.93721 3.34243C6.79551 3.02026 6.63673 2.7055 6.46151 2.39941C5.17841 2.61346 3.9292 2.98892 2.74514 3.51639C0.394983 6.90737 -0.242108 10.2141 0.0764374 13.4739C1.4526 14.4659 2.99313 15.2201 4.63094 15.7038C4.99957 15.22 5.32587 14.7069 5.60639 14.1698C5.0738 13.9759 4.55978 13.7366 4.07029 13.4546C4.19913 13.3635 4.32513 13.2696 4.44689 13.1785C5.87128 13.8317 7.42593 14.1705 8.99997 14.1705C10.574 14.1705 12.1287 13.8317 13.5531 13.1785C13.6762 13.2765 13.8022 13.3704 13.9296 13.4546C13.4394 13.7373 12.9244 13.9771 12.3907 14.1712C12.6707 14.7081 12.997 15.2208 13.3662 15.7038C15.0054 15.222 16.5471 14.4682 17.9235 13.4753V13.4753C18.2973 9.69499 17.285 6.41861 15.2477 3.51363ZM6.00988 11.4692C5.1222 11.4692 4.38884 10.6836 4.38884 9.71708C4.38884 8.7506 5.09672 7.95808 6.00705 7.95808C6.91739 7.95808 7.64509 8.7506 7.62951 9.71708C7.61394 10.6836 6.91456 11.4692 6.00988 11.4692ZM11.9901 11.4692C11.101 11.4692 10.3704 10.6836 10.3704 9.71708C10.3704 8.7506 11.0783 7.95808 11.9901 7.95808C12.9018 7.95808 13.6238 8.7506 13.6083 9.71708C13.5927 10.6836 12.8947 11.4692 11.9901 11.4692Z" fill="white"/>
</svg>
