<svg width="18" height="18" viewBox="0 0 18 18" fill="none" xmlns="http://www.w3.org/2000/svg">
<path fill-rule="evenodd" clip-rule="evenodd" d="M1.23701 8.4196C6.06722 6.31513 9.28817 4.92773 10.8997 4.25746C15.5011 2.3436 16.4573 2.01112 17.0804 2.00012C17.2175 1.99772 17.524 2.0317 17.7225 2.1928C18.017 2.43175 18.0187 2.95044 17.986 3.29373C17.7366 5.91372 16.6577 12.2717 16.1087 15.2061C15.8764 16.4477 15.4191 16.8641 14.9764 16.9048C14.0142 16.9933 13.2836 16.2689 12.3516 15.658C10.8934 14.7021 10.0695 14.107 8.65394 13.1742C7.01807 12.0962 8.07856 11.5037 9.01083 10.5354C9.25483 10.282 13.4943 6.42587 13.5763 6.07605C13.5866 6.03229 13.5961 5.86919 13.4992 5.78311C13.4023 5.69703 13.2594 5.72641 13.1562 5.74984C13.0099 5.78305 10.6803 7.32287 6.16729 10.3693C5.50601 10.8233 4.90707 11.0446 4.37045 11.033C3.77881 11.0202 2.64085 10.6985 1.79486 10.4235C0.757221 10.0862 -0.0674798 9.90784 0.00436272 9.33504C0.0417726 9.0366 0.452634 8.7315 1.23701 8.4196V8.4196Z" fill="white"/>
</svg>
