<svg width="111" height="144" viewBox="0 0 111 144" fill="none" xmlns="http://www.w3.org/2000/svg">
<path d="M22.3426 117.785L26.1502 117.637C26.1282 117.639 26.106 117.639 26.084 117.637L22.2764 117.785H22.3426Z" fill="#852626"/>
<path d="M32.7187 115.896L36.5263 115.748L26.1504 117.636L22.3428 117.787L32.7187 115.896Z" fill="url(#paint0_linear_1750_15031)"/>
<path d="M32.9391 115.883L36.7467 115.735C36.6726 115.738 36.5988 115.746 36.5259 115.76L32.7183 115.908C32.7912 115.894 32.865 115.886 32.9391 115.883Z" fill="#852626"/>
<path d="M37.4395 85.8668L41.247 85.7163L42.1658 85.9284L38.3582 86.0766L37.4395 85.8668Z" fill="#A02E2E"/>
<path d="M40.5084 53.6307L44.316 53.4802C44.2741 53.5623 44.2343 53.6444 44.1968 53.7288L40.3892 53.877C40.4274 53.7934 40.4672 53.7113 40.5084 53.6307Z" fill="#994D00"/>
<path d="M40.3865 53.8762L44.1941 53.728C44.1588 53.8086 44.1256 53.8907 44.0947 53.9743L40.2871 54.1225C40.318 54.0404 40.3512 53.9583 40.3865 53.8762Z" fill="#9E4F00"/>
<path d="M40.29 54.1221L44.0975 53.9739C44.0688 54.056 44.0423 54.138 44.018 54.2224L40.2104 54.3706C40.2347 54.2863 40.2612 54.2042 40.29 54.1221Z" fill="#A35200"/>
<path d="M40.21 54.3698L44.0176 54.2219C43.9933 54.3061 43.9713 54.3925 43.9536 54.4767L40.146 54.6246C40.1637 54.5404 40.1857 54.454 40.21 54.3698Z" fill="#A85400"/>
<path d="M40.1458 54.6242L43.9533 54.4763C43.9335 54.565 43.918 54.6538 43.9047 54.7425L40.0972 54.8903C40.1104 54.8016 40.1259 54.7129 40.1458 54.6242Z" fill="#AD5700"/>
<path d="M40.0968 54.8908L43.9044 54.7429C43.8912 54.8362 43.8801 54.9295 43.8735 55.025L40.0659 55.1729C40.0659 55.0773 40.0836 54.9841 40.0968 54.8908Z" fill="#B35A00"/>
<path d="M40.0659 55.1728L43.8735 55.0249C43.8735 55.1273 43.8735 55.2296 43.8735 55.332L40.0659 55.4799C40.0659 55.3775 40.0659 55.2751 40.077 55.1728" fill="#B85C00"/>
<path d="M40.0552 55.4799L43.8628 55.332C43.8628 55.448 43.8628 55.5595 43.8782 55.6801L40.0706 55.8279C40.0706 55.7119 40.0552 55.6005 40.0552 55.4799Z" fill="#BD5F00"/>
<path d="M40.0708 55.828L43.8784 55.6802C43.8912 55.8238 43.9119 55.9666 43.9402 56.1078L40.1326 56.258C40.1045 56.1159 40.0838 55.9724 40.0708 55.828Z" fill="#C26100"/>
<path d="M40.1323 56.2576L43.9399 56.1074C44.0481 56.6585 44.2745 57.1776 44.6025 57.627L40.7949 57.7749C40.4673 57.3261 40.241 56.8078 40.1323 56.2576Z" fill="#C76400"/>
<path d="M38.3569 86.0824L42.1645 85.9346L42.4008 85.9937L38.5933 86.1416L38.3569 86.0824Z" fill="#9E2E2E"/>
<path d="M38.5942 86.1363L42.4018 85.988C42.5697 86.0337 42.7331 86.0838 42.8966 86.1432L39.089 86.2914C38.9255 86.2321 38.7621 86.1819 38.5942 86.1363Z" fill="#A32F2F"/>
<path d="M39.0884 86.2901L42.896 86.1418C43.0616 86.1989 43.2228 86.2627 43.3819 86.3334L39.5743 86.484C39.4153 86.4133 39.254 86.3471 39.0884 86.2901Z" fill="#A83131"/>
<path d="M39.5742 86.4835L43.3818 86.333C43.5452 86.406 43.7065 86.4858 43.8633 86.561L40.0557 86.7092C39.8989 86.6249 39.7377 86.5451 39.5742 86.4812" fill="#AD3232"/>
<path d="M40.0566 86.7172L43.8642 86.5693C44.0299 86.6603 44.1911 86.7559 44.3501 86.8582L40.5425 87.0061C40.3835 86.9037 40.2223 86.8082 40.0566 86.7172Z" fill="#B33434"/>
<path d="M40.542 87.006L44.3496 86.8582C44.5219 86.9696 44.6897 87.0856 44.8509 87.2153L41.0433 87.3632C40.8821 87.2358 40.7143 87.1175 40.542 87.006Z" fill="#B83535"/>
<path d="M41.0493 87.3632L44.8569 87.2153C45.0425 87.3575 45.2209 87.5094 45.3914 87.6703L41.5838 87.8182C41.4115 87.6567 41.2348 87.5042 41.0493 87.3632Z" fill="#BD3737"/>
<path d="M41.5771 87.8205L45.3847 87.6726C45.5438 87.8205 45.6961 87.9797 45.8419 88.1435L42.0343 88.2914C41.8886 88.1276 41.7362 87.9683 41.5771 87.8205Z" fill="#C23838"/>
<path d="M43.2583 51.8263L47.0659 51.6785C46.3428 51.7083 45.6512 51.9907 45.1047 52.4792C45.0428 52.5338 44.9832 52.5907 44.9258 52.6475L41.1182 52.7954C41.1756 52.7385 41.2352 52.6817 41.2971 52.6271C41.8436 52.1386 42.5352 51.8562 43.2583 51.8263Z" fill="#854300"/>
<path d="M41.1181 52.7953L44.9257 52.6475C44.8307 52.7457 44.7407 52.8489 44.6562 52.9568L40.8486 53.1047C40.9331 52.9968 41.0231 52.8935 41.1181 52.7953Z" fill="#8A4500"/>
<path d="M40.8489 53.0978L44.6565 52.95C44.588 53.0368 44.5239 53.1271 44.4643 53.2207L40.6567 53.3685C40.7163 53.275 40.7804 53.1846 40.8489 53.0978Z" fill="#8F4800"/>
<path d="M40.6563 53.3754L44.4639 53.2275C44.4109 53.3094 44.3623 53.3936 44.3159 53.48L40.5083 53.6302C40.5547 53.5415 40.6033 53.4573 40.6563 53.3754Z" fill="#944A00"/>
<path d="M40.5084 53.631L44.316 53.4805C44.2741 53.5626 44.2343 53.6446 44.1968 53.729L40.3892 53.8772C40.4274 53.7936 40.4672 53.7115 40.5084 53.631Z" fill="#994D00"/>
<path d="M43.2578 51.8262L47.0654 51.678H47.2068L43.3992 51.8262H43.2578Z" fill="#8F8F8F"/>
<path d="M43.3999 51.8243L47.2075 51.676C47.3002 51.676 47.393 51.676 47.4858 51.692L43.6782 51.8402C43.5854 51.8402 43.4927 51.8266 43.3999 51.8243Z" fill="#949494"/>
<path d="M43.6777 51.84L47.4853 51.6914H47.5538C47.6178 51.6914 47.6797 51.7097 47.7415 51.7211L43.9339 51.8698C43.8721 51.8698 43.8103 51.8469 43.7484 51.84H43.6777Z" fill="#999999"/>
<path d="M43.9341 51.8772L47.7417 51.7339C47.8228 51.7475 47.9032 51.7657 47.9824 51.7885L44.1748 51.9363C44.0956 51.9136 44.0152 51.8954 43.9341 51.8817" fill="#9E9E9E"/>
<path d="M44.1748 51.9311L47.9824 51.7832C48.0597 51.8037 48.1392 51.8264 48.2143 51.8537L44.4067 52.0016C44.3316 51.9743 44.2543 51.9515 44.1858 51.9311" fill="#A3A3A3"/>
<path d="M44.4067 52.0021L48.2143 51.8542C48.2916 51.8815 48.3667 51.9111 48.4352 51.9452L44.6276 52.0931C44.5525 52.059 44.4774 52.0294 44.4067 52.0021Z" fill="#A8A8A8"/>
<path d="M44.6338 52.0936L48.4414 51.9453C48.5165 51.9772 48.5894 52.016 48.6622 52.0548L44.8546 52.2031C44.7818 52.1643 44.7067 52.1278 44.6338 52.0936Z" fill="#ADADAD"/>
<path d="M44.8569 52.2029L48.6645 52.0547C48.7396 52.0957 48.8147 52.1414 48.8854 52.1893L45.0778 52.3375C45.0027 52.2896 44.9276 52.244 44.8569 52.2029Z" fill="#B3B3B3"/>
<path d="M45.082 52.3358L48.8896 52.1875C48.9662 52.2377 49.0435 52.2924 49.1215 52.3517L45.3139 52.5C45.2395 52.4411 45.162 52.3863 45.082 52.3358Z" fill="#B8B8B8"/>
<path d="M45.3145 52.4998L49.122 52.3516C49.2081 52.4185 49.2906 52.49 49.3694 52.5659L45.5618 52.7141C45.483 52.6382 45.4005 52.5667 45.3145 52.4998Z" fill="#BDBDBD"/>
<path d="M45.5615 52.7133L49.3691 52.5654C49.4731 52.6606 49.5713 52.7624 49.6629 52.8703L45.8553 53.0181C45.7658 52.9105 45.6699 52.8087 45.5682 52.7133" fill="#C2C2C2"/>
<path d="M45.8486 53.0186L49.6629 52.8704C49.7114 52.9274 49.76 52.989 49.8064 53.0528L45.9988 53.2011C45.9524 53.1372 45.9038 53.0756 45.8553 53.0186" fill="#C7C7C7"/>
<path d="M42.0342 88.2917L45.8418 88.1438L51.4935 94.5042L47.6859 94.652L42.0342 88.2917Z" fill="#CF3C3C"/>
<path d="M44.6909 20.8509L48.4985 20.7026H48.5581L44.7505 20.8509H44.6953" fill="#947D4B"/>
<path d="M44.7466 20.8504L48.5586 20.7021C48.6624 20.7021 48.764 20.7021 48.8656 20.7021L45.058 20.8504C44.9564 20.8504 44.8548 20.8504 44.751 20.8504" fill="#8F7849"/>
<path d="M40.7979 57.7748L44.6054 57.627L50.8977 66.2121L47.0901 66.36L40.7979 57.7748Z" fill="#D36A00"/>
<path d="M49.1479 67.6848L52.9555 67.5361C53.0152 67.5476 53.0792 67.5567 53.1411 67.5636H53.2095L49.4019 67.7122H49.3335L49.1479 67.6825" fill="#994D00"/>
<path d="M47.0903 66.3607L50.8979 66.2124C50.9421 66.274 50.9907 66.3356 51.0393 66.3926L47.2317 66.5409C47.1831 66.4838 47.1367 66.4222 47.0903 66.3607Z" fill="#C76400"/>
<path d="M47.2339 66.5407L51.0415 66.3928C51.1308 66.4999 51.2259 66.6017 51.3264 66.6976L47.5188 66.8455C47.4183 66.7495 47.3232 66.6478 47.2339 66.5407Z" fill="#C26100"/>
<path d="M47.5161 66.8452L51.3237 66.697C51.4054 66.7723 51.4871 66.843 51.5733 66.9114L47.7657 67.0596C47.6795 66.9912 47.5978 66.9205 47.5161 66.8452Z" fill="#BD5F00"/>
<path d="M47.7656 67.0587L51.5732 66.9104C51.6483 66.9697 51.7278 67.0244 51.8073 67.0769L47.9997 67.2252C47.9202 67.1727 47.8429 67.118 47.7656 67.0587Z" fill="#B85C00"/>
<path d="M48.0005 67.2249L51.8081 67.0767C51.881 67.1246 51.9561 67.1679 52.0289 67.2112L48.2213 67.3595C48.1463 67.3162 48.069 67.2728 48.0005 67.2249Z" fill="#B35A00"/>
<path d="M48.2256 67.3592L52.0332 67.2109C52.1083 67.2505 52.1819 67.287 52.254 67.3204L48.4464 67.4687C48.3714 67.4352 48.2977 67.3987 48.2256 67.3592Z" fill="#AD5700"/>
<path d="M48.4507 67.4677L52.2583 67.3198C52.3334 67.3517 52.4085 67.3835 52.4791 67.4085L48.6715 67.5587C48.5964 67.5314 48.5214 67.5018 48.4507 67.4677Z" fill="#A85400"/>
<path d="M48.6761 67.5588L52.4837 67.4087C52.561 67.436 52.6383 67.461 52.7045 67.4815L48.8969 67.6293C48.8196 67.6089 48.7423 67.5839 48.665 67.5588" fill="#A35200"/>
<path d="M48.9072 67.6293L52.7148 67.4814C52.7943 67.5019 52.8738 67.5201 52.9556 67.536L49.148 67.6839C49.0662 67.668 48.9867 67.6498 48.9072 67.6293Z" fill="#9E4F00"/>
<path d="M49.1484 67.6848L52.956 67.5361C53.0157 67.5476 53.0797 67.5567 53.1415 67.5636H53.21L49.4024 67.7122H49.334L49.1484 67.6825" fill="#994D00"/>
<path d="M49.4023 67.721L53.2099 67.5728C53.3027 67.5819 53.3955 67.5864 53.4882 67.5864L49.6806 67.7347C49.5879 67.7347 49.4951 67.7301 49.4023 67.721Z" fill="#944A00"/>
<path d="M49.6807 67.7344L53.4883 67.5862C53.5346 67.5862 53.5832 67.5862 53.6296 67.5862L49.822 67.7344C49.7756 67.7344 49.727 67.7344 49.6807 67.7344Z" fill="#8F4800"/>
<path d="M51.33 104.32L39.5583 127.75C39.5369 127.792 39.511 127.831 39.481 127.866C39.4537 127.897 39.4225 127.924 39.3882 127.946L39.3705 127.957C39.3431 127.974 39.3143 127.987 39.2844 127.998H39.2557C39.2202 128.008 39.184 128.014 39.1475 128.016L42.9551 127.869C42.9916 127.866 43.0278 127.86 43.0633 127.85H43.092C43.1219 127.84 43.1507 127.826 43.1781 127.809L43.1958 127.798C43.2246 127.78 43.2513 127.759 43.2753 127.734L43.2885 127.718L43.3062 127.698L43.3349 127.657L43.3592 127.616V127.602L55.1309 104.172L51.33 104.32Z" fill="url(#paint1_linear_1750_15031)"/>
<path d="M45.9922 53.2001L49.7998 53.0522L53.9961 58.778L50.1885 58.9258L45.9922 53.2001Z" fill="#D3D3D3"/>
<path d="M51.7835 66.9335L55.5911 66.7856C55.0441 67.273 54.3526 67.5545 53.6299 67.5841L49.8223 67.732C50.545 67.7024 51.2365 67.4209 51.7835 66.9335Z" fill="#858585"/>
<path d="M47.686 94.652L51.4936 94.5042C51.6416 94.6702 51.794 94.8294 51.953 94.9773L48.1454 95.1252C47.9886 94.9773 47.834 94.8181 47.686 94.652Z" fill="#C23838"/>
<path d="M48.1455 95.1249L51.9531 94.9771C52.1254 95.1408 52.3043 95.2932 52.4876 95.432L48.68 95.5799C48.4967 95.4366 48.3178 95.2841 48.1455 95.1249Z" fill="#BD3737"/>
<path d="M48.6797 95.5844L52.4873 95.4365C52.6507 95.5616 52.8164 95.6799 52.9864 95.7914L49.1788 95.9393C49.0088 95.8278 48.8431 95.7118 48.6797 95.5844Z" fill="#B83535"/>
<path d="M49.1787 95.9394L52.9863 95.7915C53.1453 95.8946 53.3065 95.9902 53.47 96.0781L49.6624 96.226C49.499 96.138 49.3377 96.0425 49.1787 95.9394Z" fill="#B33434"/>
<path d="M49.6631 96.2266L53.4707 96.0784C53.6297 96.1627 53.7887 96.2425 53.9521 96.3064L50.1446 96.4546C49.9811 96.3839 49.8221 96.3041 49.6631 96.2266Z" fill="#AD3232"/>
<path d="M50.144 96.4608L53.9516 96.3125C54.1107 96.3832 54.2719 96.4494 54.4353 96.5064L50.6277 96.6546C50.4643 96.5976 50.3031 96.5315 50.144 96.4608Z" fill="#A83131"/>
<path d="M50.6279 96.6541L54.4355 96.5059C54.6012 96.5652 54.7668 96.6153 54.9325 96.661L51.1249 96.8092C50.9592 96.7636 50.7936 96.7134 50.6279 96.6541Z" fill="#A32F2F"/>
<path d="M51.1245 96.8089L54.9321 96.6606C55.1044 96.7063 55.2766 96.745 55.4489 96.777L51.6413 96.9252C51.4691 96.8933 51.2968 96.8545 51.1245 96.8089Z" fill="#9E2E2E"/>
<path d="M51.6504 96.9243L55.4492 96.7742C55.5817 96.7992 55.7164 96.8197 55.849 96.8356L55.9969 96.8515L52.1893 97.0016L52.0414 96.9835C51.9088 96.9675 51.7763 96.9471 51.6416 96.922" fill="#992C2C"/>
<path d="M52.1895 97.0025L55.997 96.8516C56.1958 96.8721 56.3924 96.8836 56.5912 96.8859L52.7858 97.0345C52.587 97.0345 52.3882 97.0208 52.1895 97.0025Z" fill="#942B2B"/>
<path d="M52.7852 97.0362L56.5905 96.8879C56.6943 96.8879 56.7959 96.8879 56.8997 96.8879L53.0921 97.0385H52.7852" fill="#8F2929"/>
<path d="M33.0198 49.0922L36.8274 48.9443C36.6934 49.5646 36.58 50.1947 36.4873 50.8347L32.6797 50.9826C32.7724 50.3433 32.8873 49.7132 33.0198 49.0922Z" fill="#AD9258"/>
<path d="M32.6796 50.9826L36.4872 50.8347C36.418 51.2897 36.362 51.7492 36.3193 52.2133C36.2973 52.4294 36.2796 52.6455 36.2641 52.8593L32.4565 53.0094C32.472 52.782 32.4897 52.5772 32.5118 52.3611C32.5559 51.8971 32.6119 51.4375 32.6796 50.9826Z" fill="#B3975B"/>
<path d="M32.4572 53.0095L36.2648 52.8594C36.2103 53.5964 36.1831 54.3274 36.1831 55.0523L32.3755 55.2002C32.3755 54.4753 32.4027 53.745 32.4572 53.0095Z" fill="#B89B5E"/>
<path d="M32.3755 55.1999L36.1831 55.052C36.1831 55.8823 36.2228 56.7058 36.2957 57.5179L32.4881 57.6658C32.4152 56.8537 32.3777 56.0302 32.3755 55.1999Z" fill="#BD9F60"/>
<path d="M32.4883 57.6659L36.2959 57.5181C36.3837 58.5226 36.5261 59.5213 36.7221 60.5095L32.9145 60.6573C32.7183 59.6692 32.576 58.6705 32.4883 57.6659Z" fill="#C2A363"/>
<path d="M32.9146 60.6571L36.7221 60.5093C37.5997 64.9813 39.57 69.1489 42.4468 72.6181L38.6392 72.766C35.762 69.297 33.7917 65.1293 32.9146 60.6571Z" fill="#C7A865"/>
<path d="M38.6392 72.7663L42.4467 72.6184C43.0812 73.381 43.7589 74.1041 44.4764 74.784L40.6688 74.9319C39.9513 74.252 39.2736 73.5288 38.6392 72.7663Z" fill="#C2A363"/>
<path d="M40.6689 74.9364L44.4765 74.7886C45.0463 75.3254 45.6353 75.8335 46.2434 76.3127L42.4358 76.4606C41.8218 75.9829 41.2329 75.4748 40.6689 74.9364Z" fill="#BD9F60"/>
<path d="M42.4443 76.456L46.2519 76.3081C46.7893 76.7267 47.3422 77.1202 47.9106 77.4887L44.103 77.6389C43.5332 77.2688 42.9803 76.8745 42.4443 76.456Z" fill="#B89B5E"/>
<path d="M44.1025 77.6392L47.9101 77.489C48.4314 77.8272 48.9651 78.1442 49.5114 78.4399L45.7038 78.5877C45.1582 78.2943 44.6238 77.9758 44.1025 77.6392Z" fill="#B3975B"/>
<path d="M45.7041 78.5876L49.5117 78.4397C50.0285 78.7195 50.5586 78.9788 51.0975 79.2177L47.2899 79.3656C46.751 79.1259 46.2224 78.8666 45.7041 78.5876Z" fill="#AD9258"/>
<path d="M47.29 79.3654L51.0976 79.2175C51.6218 79.4496 52.1548 79.6619 52.6966 79.8545L48.8891 80.0023C48.3457 79.8097 47.8127 79.5974 47.29 79.3654Z" fill="#A88E56"/>
<path d="M48.8892 80.0028L52.6968 79.855C53.2356 80.0461 53.7834 80.2159 54.3399 80.3645L50.5323 80.5124C49.9758 80.3608 49.4281 80.1909 48.8892 80.0028Z" fill="#A38A53"/>
<path d="M50.5327 80.5119L54.3403 80.364C54.9057 80.5164 55.4777 80.6461 56.0608 80.753L52.2532 80.9009C51.6701 80.794 51.0981 80.6734 50.5327 80.5119Z" fill="#9E8551"/>
<path d="M52.2524 80.9011L56.06 80.7529C56.5017 80.835 56.9435 80.9034 57.3852 80.9581L53.5776 81.1063C53.1359 81.0516 52.6942 80.9832 52.2524 80.9011Z" fill="#99814E"/>
<path d="M56.7453 95.7572L60.5529 95.6094C60.0769 95.9517 59.5613 96.2314 59.0179 96.442C58.3394 96.7048 57.6242 96.853 56.8999 96.881L53.0923 97.0311C53.8166 97.0013 54.5317 96.8523 55.2103 96.5898C55.7537 96.3793 56.2693 96.0996 56.7453 95.7572Z" fill="#857044"/>
<path d="M37.4385 85.8552L38.3573 86.0668C39.7743 86.4004 41.0578 87.1737 42.0346 88.2825L47.6863 94.6519C48.8181 95.9444 50.3645 96.7731 52.0417 96.9859C53.1136 97.1182 54.2007 96.9824 55.211 96.5901L51.3305 104.324L39.5588 127.755C39.5152 127.849 39.4441 127.927 39.3553 127.978C39.2666 128.028 39.1648 128.049 39.064 128.037C38.972 128.025 38.8851 127.986 38.8127 127.927C38.7403 127.867 38.6851 127.788 38.6532 127.698L34.585 117.027C34.4758 116.723 34.288 116.455 34.0421 116.253C33.7962 116.05 33.5013 115.921 33.1892 115.878C33.0327 115.858 32.874 115.862 32.7188 115.892L22.3385 117.78C22.2924 117.788 22.2454 117.788 22.1993 117.78C22.1146 117.765 22.0346 117.729 21.966 117.675C21.8973 117.622 21.8419 117.553 21.8044 117.473C21.7669 117.393 21.7483 117.305 21.7501 117.217C21.752 117.128 21.7742 117.041 21.815 116.963L37.4385 85.8552Z" fill="url(#paint2_linear_1750_15031)"/>
<path d="M55.211 96.59L59.0186 96.4421L55.1359 104.172L51.3306 104.322L55.211 96.59Z" fill="#A12F2F"/>
<path d="M55.1132 29.235L58.9208 29.0872C53.1299 29.3146 47.7873 31.8556 43.7368 35.9707L39.9292 36.1186C43.9797 32.0035 49.3223 29.4602 55.1132 29.235Z" fill="#857044"/>
<path d="M39.9295 36.1183L43.7371 35.9705C43.0583 36.6604 42.4189 37.3903 41.8222 38.1566L38.0146 38.3044C38.6113 37.5382 39.2507 36.8082 39.9295 36.1183Z" fill="#8A7446"/>
<path d="M38.0143 38.3112L41.8219 38.1633C41.339 38.7836 40.8825 39.4289 40.4526 40.0992L36.645 40.2471C37.075 39.5783 37.5314 38.933 38.0143 38.3112Z" fill="#8F7849"/>
<path d="M36.6448 40.2404L40.4524 40.0925C40.0799 40.6794 39.7273 41.286 39.3945 41.9124L35.5869 42.0602C35.9182 41.44 36.2708 40.8334 36.6448 40.2404Z" fill="#947D4B"/>
<path d="M35.5871 42.0509L39.3947 41.9031C39.0921 42.4718 38.8072 43.0564 38.5444 43.6547L34.7368 43.8025C34.9996 43.2043 35.2845 42.6196 35.5871 42.0509Z" fill="#99814E"/>
<path d="M34.7372 43.8026L38.5448 43.6548C38.296 44.2205 38.0641 44.7983 37.8491 45.3882L34.0415 45.5361C34.2565 44.9476 34.4884 44.3698 34.7372 43.8026Z" fill="#9E8551"/>
<path d="M34.0412 45.5365L37.8488 45.3887C37.6412 45.9619 37.4535 46.5466 37.2812 47.1426L33.4736 47.2904C33.6459 46.6944 33.8336 46.1098 34.0412 45.5365Z" fill="#A38A53"/>
<path d="M33.4738 47.29L37.2813 47.1421C37.1113 47.7313 36.9611 48.3341 36.8286 48.9437L33.021 49.0916C33.1535 48.482 33.3037 47.8791 33.4627 47.29" fill="#A88E56"/>
<path d="M33.0208 49.0917L36.8284 48.9438C36.6944 49.5641 36.581 50.1942 36.4883 50.8342L32.6807 50.9821C32.7734 50.3429 32.8883 49.7127 33.0208 49.0917Z" fill="#AD9258"/>
<path d="M53.583 81.1054L57.3906 80.9575C57.5607 80.978 57.7329 80.9962 57.903 81.0121L54.0954 81.1622L53.583 81.1054Z" fill="#99814E"/>
<path d="M54.0947 81.1635L57.9023 81.0129C58.5693 81.0798 59.2319 81.1156 59.89 81.1201L56.0824 81.2684C55.4199 81.2684 54.7573 81.2273 54.0947 81.1635Z" fill="#947D4B"/>
<path d="M56.0845 81.2677L59.8921 81.1195C60.2233 81.1195 60.5546 81.1195 60.8859 81.1035L57.0783 81.2518C56.7493 81.2632 56.4158 81.27 56.0845 81.2677Z" fill="#8F7849"/>
<path d="M55.1138 29.2347L58.9214 29.0865C59.2504 29.0865 59.5839 29.0682 59.9152 29.0705L56.1076 29.2119C55.7741 29.2119 55.4451 29.2119 55.1138 29.2279" fill="#8F4800"/>
<path d="M56.1069 29.2125L59.9145 29.0642C60.5771 29.0642 61.2397 29.1053 61.9022 29.1691L58.0947 29.3197C57.4321 29.2535 56.7695 29.217 56.1069 29.2125Z" fill="#944A00"/>
<path d="M58.0972 29.3262L61.9048 29.176L62.415 29.2329L58.6074 29.3808C58.438 29.361 58.268 29.3428 58.0972 29.3262Z" fill="#994D00"/>
<path d="M63.485 90.912L67.2926 90.7642L60.5542 95.6095L56.7466 95.7574L63.485 90.912Z" fill="#826E42"/>
<path d="M66.5756 119.977C66.5164 119.98 66.4574 119.986 66.3989 119.996H66.3459L66.2222 120.025L66.167 120.041C66.1227 120.055 66.0793 120.071 66.0367 120.089L65.9991 120.103C65.9439 120.127 65.8901 120.154 65.8379 120.184L65.8004 120.207L65.6855 120.284L65.6369 120.321C65.6038 120.348 65.5684 120.378 65.5353 120.41L65.4956 120.446L65.4779 120.464C65.458 120.482 65.4404 120.507 65.4205 120.528C65.4006 120.548 65.3741 120.578 65.3542 120.605L65.3388 120.621C65.3056 120.667 65.2725 120.712 65.2394 120.762L59.2188 130.214C59.1973 130.249 59.1713 130.281 59.1415 130.31L59.1238 130.325C59.103 130.346 59.0801 130.363 59.0554 130.378L59.0244 130.394C59.0032 130.405 58.981 130.415 58.9582 130.423H58.9295C58.8971 130.433 58.8637 130.438 58.8301 130.439L62.6377 130.291C62.6713 130.291 62.7047 130.285 62.7371 130.275H62.7658C62.7886 130.268 62.8108 130.258 62.832 130.246L62.8629 130.23C62.8872 130.215 62.9101 130.197 62.9314 130.178L62.9491 130.162C62.9642 130.148 62.9782 130.132 62.991 130.116C63.0026 130.102 63.0129 130.087 63.022 130.071L69.0425 120.63C69.0779 120.576 69.1154 120.523 69.1552 120.473C69.1773 120.446 69.2016 120.421 69.2236 120.396C69.2457 120.371 69.2722 120.339 69.2987 120.314L69.3385 120.278C69.3708 120.246 69.4047 120.217 69.4401 120.189L69.4887 120.153L69.6035 120.075L69.6411 120.052C69.6928 120.021 69.7467 119.994 69.8023 119.971L69.8398 119.955L69.9701 119.909L70.0254 119.893L70.149 119.864H70.202C70.2606 119.854 70.3196 119.848 70.3787 119.845L66.5756 119.977Z" fill="url(#paint3_linear_1750_15031)"/>
<path d="M64.6061 46.2255L68.4137 46.0776L53.9961 58.7779L50.1885 58.9258L64.6061 46.2255Z" fill="#864300"/>
<path d="M67.1374 89.6381L70.945 89.4902C69.634 89.5439 68.3658 89.9853 67.292 90.7619L63.4844 90.9097C64.5583 90.1334 65.8264 89.692 67.1374 89.6381Z" fill="#857044"/>
<path d="M67.1367 89.6382L70.9443 89.49C71.0459 89.49 71.1475 89.49 71.2513 89.49L67.4437 89.6382C67.3421 89.6382 67.2383 89.6382 67.1367 89.6382Z" fill="#8F2929"/>
<path d="M67.4434 89.6341L71.2509 89.4858H71.3062L67.4986 89.6341H67.4434Z" fill="#942B2B"/>
<path d="M66.5667 45.4269L70.3743 45.2791C69.6518 45.3095 68.9605 45.5909 68.4131 46.0775L64.6055 46.2254C65.1529 45.7388 65.8442 45.4574 66.5667 45.4269Z" fill="#854300"/>
<path d="M67.499 89.6363L71.3066 89.488L72.2453 89.5017L68.4377 89.6523L67.499 89.6363Z" fill="#902A2A"/>
<path d="M66.5674 45.4276L70.375 45.2793H70.5186L66.7109 45.4276H66.5674Z" fill="#8F8F8F"/>
<path d="M66.7114 45.4254L70.519 45.2771C70.6118 45.2771 70.7045 45.2817 70.7973 45.2908L66.9897 45.439C66.8969 45.4299 66.8042 45.4254 66.7114 45.4254Z" fill="#949494"/>
<path d="M66.9893 45.4388L70.7968 45.2905H70.8653L67.0577 45.4388H66.9893Z" fill="#999999"/>
<path d="M68.8003 51.9491L72.6079 51.8013L55.5908 66.7855L51.7832 66.9333L68.8003 51.9491Z" fill="#868686"/>
<path d="M67.0578 45.4478C67.5013 45.5043 67.929 45.6533 68.3148 45.8856C68.7006 46.1179 69.0364 46.4287 69.3017 46.7991C69.8628 47.567 70.1228 48.5244 70.0299 49.4807C69.937 50.4371 69.498 51.3224 68.8004 51.9606L51.7943 66.9448C51.461 67.2429 51.0711 67.4663 50.6494 67.6006C50.2277 67.735 49.7835 67.7774 49.345 67.7251C48.9017 67.667 48.4743 67.5172 48.0887 67.2846C47.7031 67.052 47.3671 66.7414 47.1011 66.3716L40.8088 57.7864C40.2498 57.0203 39.9908 56.0658 40.0833 55.1122C40.1758 54.1586 40.6129 53.2756 41.308 52.6385C41.6412 52.3396 42.0314 52.1158 42.4536 51.9814C42.8758 51.847 43.3206 51.8051 43.7595 51.8583C44.2028 51.9163 44.6301 52.0662 45.0158 52.2988C45.4014 52.5314 45.7373 52.8419 46.0034 53.2118L50.1997 58.9375L64.6173 46.2372C64.9487 45.9385 65.3368 45.7141 65.757 45.5782C66.1771 45.4424 66.6201 45.3979 67.0578 45.4478Z" fill="white"/>
<path d="M67.0581 45.4485L70.8657 45.2998C70.9275 45.2998 70.9916 45.3158 71.0534 45.3272L67.2458 45.4759C67.184 45.4645 67.1199 45.4553 67.0581 45.4485Z" fill="#999999"/>
<path d="M67.2461 45.4755L71.0537 45.3276C71.1332 45.3436 71.2149 45.3618 71.2944 45.3822L67.4868 45.5301C67.4073 45.5096 67.3256 45.4914 67.2461 45.4755Z" fill="#9E9E9E"/>
<path d="M67.4858 45.5299L71.2934 45.3821C71.3707 45.4026 71.448 45.4276 71.5253 45.4549L67.7177 45.6027C67.6404 45.5754 67.5631 45.5527 67.4858 45.5299Z" fill="#A3A3A3"/>
<path d="M67.7178 45.6032L71.5276 45.4553C71.6041 45.4826 71.6778 45.5122 71.7484 45.544L67.943 45.6942C67.868 45.6601 67.7929 45.6305 67.7222 45.6032" fill="#A8A8A8"/>
<path d="M67.9456 45.6938L71.7509 45.5432C71.8282 45.5774 71.9011 45.6139 71.9718 45.655L68.1642 45.8032C68.0891 45.7622 68.0162 45.7257 67.9434 45.6938" fill="#ADADAD"/>
<path d="M68.1689 45.8038L71.9765 45.6555C72.0516 45.6966 72.1267 45.7399 72.1974 45.7878L68.392 45.9361C68.3169 45.8882 68.2418 45.8448 68.1711 45.8038" fill="#B3B3B3"/>
<path d="M68.3943 45.9351L72.1997 45.7869C72.2792 45.8393 72.3565 45.8941 72.4205 45.9534L68.6129 46.1016C68.5379 46.0423 68.4606 45.9876 68.3921 45.9351" fill="#B8B8B8"/>
<path d="M68.624 46.1011L72.4316 45.9529C72.5178 46.019 72.5995 46.0897 72.6812 46.1649L68.8736 46.3131C68.7919 46.2379 68.7102 46.1672 68.624 46.1011Z" fill="#BDBDBD"/>
<path d="M68.8774 46.3124L72.685 46.1646C72.7861 46.26 72.8812 46.3618 72.9699 46.4694L69.1624 46.6172C69.0736 46.5096 68.9785 46.4078 68.8774 46.3124Z" fill="#C2C2C2"/>
<path d="M69.1582 46.6171L72.9658 46.4692C73.0144 46.5261 73.063 46.5875 73.1094 46.6512C73.4371 47.0999 73.6634 47.6183 73.7719 48.1685L69.9643 48.3164C69.8558 47.7662 69.6295 47.2478 69.3018 46.7991C69.2554 46.7354 69.2068 46.6762 69.1582 46.6171Z" fill="#C7C7C7"/>
<path d="M69.9644 48.3207L73.772 48.1729C73.8001 48.3149 73.8208 48.4584 73.8338 48.6028L70.0262 48.7529C70.0144 48.6077 69.9938 48.4633 69.9644 48.3207Z" fill="#C2C2C2"/>
<path d="M70.0269 48.7485L73.8344 48.5984C73.8455 48.7144 73.8499 48.8259 73.8499 48.9464L70.0423 49.0966C70.0423 48.9806 70.0423 48.8691 70.0269 48.7485Z" fill="#BDBDBD"/>
<path d="M70.0423 49.0964L73.8499 48.9463C73.8499 49.0509 73.8499 49.1533 73.8388 49.2534L70.0312 49.4035C70.0312 49.3012 70.0312 49.1988 70.0312 49.0964" fill="#B8B8B8"/>
<path d="M70.0309 49.4036L73.8385 49.2534C73.8385 49.349 73.8209 49.4422 73.8076 49.5355L70 49.6856C70.0133 49.5901 70.0243 49.4968 70.0309 49.4036Z" fill="#B3B3B3"/>
<path d="M70.0002 49.6858L73.8079 49.5356C73.7946 49.6266 73.7791 49.7154 73.7593 49.8018L69.9517 49.9497C69.9715 49.8632 69.987 49.7745 70.0002 49.6858Z" fill="#ADADAD"/>
<path d="M69.951 49.9496L73.7586 49.8018C73.7409 49.8882 73.7188 49.9724 73.6945 50.0565L69.8892 50.2044C69.9112 50.1202 69.9333 50.0361 69.951 49.9496Z" fill="#A8A8A8"/>
<path d="M69.8888 50.2048L73.6942 50.0566C73.6722 50.141 73.6435 50.2254 73.6147 50.3075L69.8071 50.4557C69.8358 50.3736 69.8646 50.2892 69.8888 50.2048Z" fill="#A3A3A3"/>
<path d="M69.8076 50.4551L73.6152 50.3069C73.5843 50.389 73.5534 50.4711 73.5158 50.5531L69.7104 50.7013C69.7458 50.6193 69.7789 50.5372 69.8076 50.4551Z" fill="#9E9E9E"/>
<path d="M69.7103 50.7007L73.5157 50.5525C73.4804 50.6346 73.4406 50.7189 73.3965 50.7987L69.5889 50.947C69.633 50.8671 69.6728 50.7828 69.7103 50.7007Z" fill="#999999"/>
<path d="M69.5894 50.946L73.397 50.7981C73.3506 50.8845 73.302 50.9687 73.249 51.0529L69.4414 51.2007C69.4944 51.1166 69.543 51.0324 69.5894 50.946Z" fill="#949494"/>
<path d="M69.4414 51.2006L73.249 51.0527C73.1893 51.1437 73.1253 51.2347 73.059 51.3212L69.2515 51.4713C69.3177 51.3826 69.3818 51.2939 69.4414 51.2006Z" fill="#8F8F8F"/>
<path d="M69.2507 51.4714L73.0583 51.3213C72.9742 51.4303 72.8834 51.5336 72.7866 51.6307L68.979 51.7785C69.0753 51.6817 69.166 51.5792 69.2507 51.4714Z" fill="#8A8A8A"/>
<path d="M68.9797 51.7789L72.7873 51.6306C72.7298 51.6899 72.6702 51.7469 72.6084 51.7994L68.8008 51.9499C68.8626 51.8952 68.9223 51.8382 68.9797 51.7789Z" fill="#858585"/>
<path d="M68.438 89.6518L72.2456 89.5017L72.4421 90.2205L68.6346 90.3684L68.438 89.6518Z" fill="url(#paint4_linear_1750_15031)"/>
<path d="M68.6346 90.3684L72.4421 90.2205L81.5281 123.649L77.7205 123.799L68.6346 90.3684Z" fill="url(#paint5_linear_1750_15031)"/>
<path d="M77.7119 123.798L81.5195 123.649C81.5195 123.663 81.5195 123.676 81.5305 123.69L77.723 123.839C77.723 123.825 77.723 123.811 77.723 123.798" fill="#C73A3A"/>
<path d="M77.7319 123.845L81.5395 123.698C81.5395 123.72 81.5395 123.743 81.5395 123.766L77.7319 123.914C77.7319 123.891 77.7319 123.868 77.7319 123.845Z" fill="#C23838"/>
<path d="M77.7407 123.906L81.5483 123.758C81.5494 123.775 81.5494 123.792 81.5483 123.808L77.7407 123.958C77.7419 123.941 77.7419 123.924 77.7407 123.906Z" fill="#BD3737"/>
<path d="M77.7432 123.959L81.5507 123.808C81.5519 123.824 81.5519 123.839 81.5507 123.854L77.7454 124.003V123.959" fill="#B83535"/>
<path d="M77.7429 124.002L81.5483 123.854C81.5494 123.867 81.5494 123.881 81.5483 123.895L77.7407 124.044V124.002" fill="#B33434"/>
<path d="M77.7363 124.043L81.5439 123.894C81.5452 123.907 81.5452 123.92 81.5439 123.933L77.7363 124.084C77.7384 124.07 77.7384 124.057 77.7363 124.043Z" fill="#AD3232"/>
<path d="M77.7305 124.085L81.538 123.934C81.5391 123.947 81.5391 123.96 81.538 123.973L77.7305 124.122C77.7315 124.109 77.7315 124.097 77.7305 124.085Z" fill="#A83131"/>
<path d="M77.7119 124.121L81.5195 123.973C81.5195 123.984 81.5195 123.998 81.5195 124.009L77.7119 124.158C77.7119 124.146 77.7119 124.133 77.723 124.121" fill="#A32F2F"/>
<path d="M77.7122 124.158L81.5198 124.009L81.5044 124.046L77.6968 124.194C77.6968 124.194 77.7078 124.171 77.7122 124.158Z" fill="#9E2E2E"/>
<path d="M77.6944 124.194L81.502 124.046C81.502 124.059 81.491 124.071 81.4843 124.082L77.6768 124.233L77.6944 124.194Z" fill="#992C2C"/>
<path d="M77.6764 124.232L81.484 124.081C81.4767 124.095 81.4686 124.109 81.4597 124.122L77.6543 124.271L77.6764 124.232Z" fill="#942B2B"/>
<path d="M77.6545 124.27L81.4598 124.122L81.4311 124.163L77.6235 124.312L77.6545 124.27Z" fill="#8F2929"/>
<path d="M77.624 124.311L81.4316 124.163C81.4188 124.18 81.4047 124.196 81.3896 124.211L77.582 124.358C77.5977 124.344 77.6118 124.328 77.624 124.311Z" fill="#8A2828"/>
<path d="M77.5822 124.359L81.3898 124.211C81.3045 124.301 81.1892 124.354 81.0674 124.359L77.2598 124.507C77.3816 124.502 77.4969 124.449 77.5822 124.359Z" fill="#852626"/>
<path d="M68.436 89.6494L68.6326 90.3683L77.7187 123.808C77.7451 123.892 77.7512 123.981 77.7365 124.068C77.7218 124.155 77.6867 124.237 77.6342 124.307C77.5817 124.377 77.5135 124.432 77.4355 124.468C77.3574 124.505 77.2719 124.521 77.1864 124.516C77.1393 124.509 77.0933 124.496 77.0495 124.477L67.2831 120.127C67.1375 120.063 66.9834 120.021 66.826 120.002C66.5167 119.967 66.2039 120.021 65.9232 120.159C65.6425 120.298 65.4051 120.514 65.238 120.785L59.2196 130.214C59.1712 130.293 59.1019 130.357 59.0198 130.397C58.9377 130.437 58.8461 130.453 58.7558 130.441C58.6541 130.428 58.5588 130.383 58.482 130.313C58.4053 130.242 58.3507 130.15 58.3251 130.048L54.946 117.621L51.3306 104.315L55.211 96.5808C55.7546 96.3707 56.2703 96.091 56.746 95.7482L63.4844 90.9006C64.6592 90.051 66.0642 89.6044 67.4996 89.6244L68.436 89.6494Z" fill="url(#paint6_linear_1750_15031)"/>
<path d="M58.6084 29.3809L62.416 29.2327C62.8577 29.2874 63.2994 29.3558 63.7411 29.4379L59.9335 29.5861C59.4918 29.504 59.0501 29.4356 58.6084 29.3809Z" fill="#994D00"/>
<path d="M59.9399 29.5855L63.7475 29.4399C64.3277 29.5461 64.9012 29.6758 65.468 29.8289L61.6604 29.9768C61.095 29.8251 60.5215 29.6955 59.9399 29.5878" fill="#9E4F00"/>
<path d="M61.6602 29.974L65.4678 29.8262C66.0243 29.9778 66.5721 30.1477 67.1109 30.3357L63.3033 30.4836C62.7645 30.294 62.2167 30.1242 61.6602 29.974Z" fill="#A35200"/>
<path d="M63.3042 30.4838L67.1118 30.3359C67.6551 30.5301 68.1881 30.7424 68.7108 30.9729L64.9032 31.1208C64.379 30.8887 63.846 30.6764 63.3042 30.4838Z" fill="#A85400"/>
<path d="M64.9023 31.121L68.7099 30.9731C69.2488 31.212 69.7789 31.4713 70.2957 31.7511L66.4881 31.899C65.9713 31.6192 65.4412 31.3599 64.9023 31.121Z" fill="#AD5700"/>
<path d="M66.4883 31.8988L70.2959 31.751C70.8406 32.0467 71.3744 32.3637 71.8971 32.7018L68.0895 32.852C67.5683 32.513 67.036 32.1968 66.4883 31.9011" fill="#B35A00"/>
<path d="M68.0898 32.8517L71.8974 32.7039C72.4673 33.0724 73.0201 33.4659 73.5561 33.8845L69.7485 34.0323C69.2118 33.6161 68.6597 33.2202 68.0898 32.8517Z" fill="#B85C00"/>
<path d="M69.7476 34.0302L73.5552 33.8823C74.1721 34.3616 74.761 34.8704 75.322 35.4087L71.5277 35.5566C70.9593 35.0197 70.3704 34.5109 69.7608 34.0302" fill="#BD5F00"/>
<path d="M71.5273 35.5568L75.3349 35.4089C76.0521 36.0892 76.7305 36.8115 77.3668 37.5723L73.5592 37.7201C72.9235 36.9588 72.245 36.2365 71.5273 35.5568Z" fill="#C26100"/>
<path d="M73.5557 37.7201L77.3633 37.5723C80.24 41.043 82.2096 45.2123 83.0857 49.6857L79.2781 49.8335C78.4013 45.3617 76.4317 41.1941 73.5557 37.7247" fill="#C76400"/>
<path d="M79.2778 49.8293L83.0854 49.6814C83.2817 50.6688 83.424 51.6667 83.5117 52.6705L79.7063 52.8184C79.6168 51.8147 79.4737 50.8168 79.2778 49.8293Z" fill="#C26100"/>
<path d="M79.6997 52.818L83.5051 52.6702C83.5787 53.4845 83.6163 54.3065 83.6177 55.1361L79.8101 55.2839C79.8101 54.4529 79.7733 53.6309 79.6997 52.818Z" fill="#BD5F00"/>
<path d="M79.8168 55.2836L83.6244 55.1357C83.6244 55.8607 83.5979 56.5909 83.5449 57.3264L79.7373 57.4743C79.7925 56.7395 79.8168 56.0093 79.8168 55.2836Z" fill="#B85C00"/>
<path d="M79.7377 57.4743L83.5453 57.3264C83.5276 57.5402 83.51 57.7564 83.4901 57.9725C83.4437 58.4274 83.3885 58.8983 83.3222 59.3533L79.5146 59.5011C79.5809 59.0462 79.6361 58.5912 79.6825 58.1203C79.7024 57.8928 79.72 57.6904 79.7377 57.4743Z" fill="#B35A00"/>
<path d="M79.5142 59.5016L83.3218 59.3538C83.2268 59.993 83.1142 60.6231 82.9795 61.2441L79.1719 61.392C79.3066 60.771 79.4192 60.1408 79.5142 59.5016Z" fill="#AD5700"/>
<path d="M79.172 61.3918L82.9796 61.2439C82.8471 61.8535 82.6969 62.4564 82.5268 63.0478L78.7192 63.1957C78.8886 62.6042 79.0395 62.0029 79.172 61.3918Z" fill="#A85400"/>
<path d="M78.7192 63.1957L82.5268 63.0479C82.3545 63.6416 82.1668 64.2262 81.9592 64.7995L78.1538 64.9496C78.3614 64.3748 78.5506 63.7902 78.7214 63.1957" fill="#A35200"/>
<path d="M78.1542 64.9495L81.9618 64.7993C81.7468 65.3908 81.5149 65.9693 81.2661 66.535L77.4585 66.6829C77.7088 66.1157 77.9407 65.5379 78.1542 64.9495Z" fill="#9E4F00"/>
<path d="M77.4563 66.683L81.2638 66.5352C80.9988 67.1334 80.7161 67.7158 80.4135 68.2868L76.606 68.4346C76.9085 67.8659 77.1934 67.2813 77.4563 66.683Z" fill="#994D00"/>
<path d="M76.6085 68.4345L80.416 68.2866C80.0848 68.9069 79.7314 69.5135 79.3559 70.1065L75.5483 70.2543C75.9238 69.6705 76.2772 69.0638 76.6085 68.4345Z" fill="#944A00"/>
<path d="M75.5453 70.2453L79.3529 70.0974C78.9245 70.7662 78.4688 71.4115 77.9858 72.0333L74.1782 72.1812C74.6612 71.5609 75.1169 70.9156 75.5453 70.2453Z" fill="#8F4800"/>
<path d="M74.178 72.1813L77.9856 72.0334C77.3889 72.7997 76.7496 73.5296 76.0708 74.2195L72.2632 74.3674C72.9431 73.6786 73.5825 72.9486 74.178 72.1813Z" fill="#8A4500"/>
<path d="M72.2636 74.3673L76.0712 74.2195C72.0206 78.3346 66.6781 80.8779 60.8872 81.1031L57.0796 81.2509C62.8705 81.0235 68.213 78.4825 72.2636 74.3673Z" fill="#854300"/>
<path d="M58.6076 29.3808C71.6383 30.9731 81.0689 43.8395 79.6819 58.1208C78.2949 72.4021 66.6093 82.6888 53.5831 81.0964C40.5569 79.504 31.1263 66.6377 32.5133 52.3519C33.9003 38.066 45.5836 27.7907 58.6076 29.3808ZM68.8002 51.9606C69.4949 51.3228 69.9319 50.4397 70.0247 49.4861C70.1175 48.5324 69.8595 47.5775 69.3016 46.8104C69.0362 46.44 68.7004 46.1292 68.3146 45.8969C67.9289 45.6646 67.5012 45.5157 67.0577 45.4592C66.619 45.4061 66.1744 45.4479 65.7523 45.5819C65.3301 45.7158 64.9398 45.939 64.6061 46.2371L50.1885 58.9374L45.9922 53.2117C45.7259 52.8416 45.3896 52.5309 45.0036 52.2983C44.6176 52.0657 44.1898 51.916 43.7461 51.8582C43.3076 51.8058 42.8633 51.8481 42.4416 51.9825C42.0199 52.1168 41.63 52.3402 41.2968 52.6385C40.6017 53.2756 40.1646 54.1585 40.0721 55.1121C39.9797 56.0657 40.2386 57.0203 40.7977 57.7864L47.0899 66.3715C47.356 66.7414 47.6919 67.0519 48.0775 67.2845C48.4632 67.5171 48.8905 67.667 49.3338 67.725C49.7723 67.7773 50.2165 67.7349 50.6383 67.6006C51.06 67.4662 51.4499 67.2429 51.7831 66.9448L68.7892 51.9606" fill="#C46200"/>
<path d="M58.6076 29.3808C71.6383 30.9731 81.0689 43.8395 79.6819 58.1208C78.2949 72.4021 66.6093 82.6888 53.5831 81.0964C40.5569 79.504 31.1263 66.6377 32.5133 52.3519C33.9003 38.066 45.5836 27.7907 58.6076 29.3808ZM68.8002 51.9606C69.4949 51.3228 69.9319 50.4397 70.0247 49.4861C70.1175 48.5324 69.8595 47.5775 69.3016 46.8104C69.0362 46.44 68.7004 46.1292 68.3146 45.8969C67.9289 45.6646 67.5012 45.5157 67.0577 45.4592C66.619 45.4061 66.1744 45.4479 65.7523 45.5819C65.3301 45.7158 64.9398 45.939 64.6061 46.2371L50.1885 58.9374L45.9922 53.2117C45.7259 52.8416 45.3896 52.5309 45.0036 52.2983C44.6176 52.0657 44.1898 51.916 43.7461 51.8582C43.3076 51.8058 42.8633 51.8481 42.4416 51.9825C42.0199 52.1168 41.63 52.3402 41.2968 52.6385C40.6017 53.2756 40.1646 54.1585 40.0721 55.1121C39.9797 56.0657 40.2386 57.0203 40.7977 57.7864L47.0899 66.3715C47.356 66.7414 47.6919 67.0519 48.0775 67.2845C48.4632 67.5171 48.8905 67.667 49.3338 67.725C49.7723 67.7773 50.2165 67.7349 50.6383 67.6006C51.06 67.4662 51.4499 67.2429 51.7831 66.9448L68.7892 51.9606" fill="url(#paint7_linear_1750_15031)"/>
<path d="M58.6076 29.3808C71.6383 30.9731 81.0689 43.8395 79.6819 58.1208C78.2949 72.4021 66.6093 82.6888 53.5831 81.0964C40.5569 79.504 31.1263 66.6377 32.5133 52.3519C33.9003 38.066 45.5836 27.7907 58.6076 29.3808ZM68.8002 51.9606C69.4949 51.3228 69.9319 50.4397 70.0247 49.4861C70.1175 48.5324 69.8595 47.5775 69.3016 46.8104C69.0362 46.44 68.7004 46.1292 68.3146 45.8969C67.9289 45.6646 67.5012 45.5157 67.0577 45.4592C66.619 45.4061 66.1744 45.4479 65.7523 45.5819C65.3301 45.7158 64.9398 45.939 64.6061 46.2371L50.1885 58.9374L45.9922 53.2117C45.7259 52.8416 45.3896 52.5309 45.0036 52.2983C44.6176 52.0657 44.1898 51.916 43.7461 51.8582C43.3076 51.8058 42.8633 51.8481 42.4416 51.9825C42.0199 52.1168 41.63 52.3402 41.2968 52.6385C40.6017 53.2756 40.1646 54.1585 40.0721 55.1121C39.9797 56.0657 40.2386 57.0203 40.7977 57.7864L47.0899 66.3715C47.356 66.7414 47.6919 67.0519 48.0775 67.2845C48.4632 67.5171 48.8905 67.667 49.3338 67.725C49.7723 67.7773 50.2165 67.7349 50.6383 67.6006C51.06 67.4662 51.4499 67.2429 51.7831 66.9448L68.7892 51.9606" fill="url(#paint8_linear_1750_15031)"/>
<path d="M91.2752 33.6846C91.2752 33.6141 91.2752 33.5436 91.2752 33.473C91.2752 33.4025 91.2752 33.3684 91.2752 33.3161C91.2752 33.2638 91.2752 33.1796 91.2619 33.1113C91.2619 33.0909 91.2619 33.0681 91.2619 33.0454V32.9749C91.2509 32.8679 91.2376 32.761 91.2244 32.6541L91.2111 32.5495C91.189 32.413 91.1669 32.2765 91.1404 32.1423C91.1392 32.1363 91.1392 32.1301 91.1404 32.1241C91.1357 32.1092 91.132 32.094 91.1294 32.0786C91.1007 31.9421 91.0698 31.8079 91.0344 31.6737C91.0344 31.6418 91.019 31.61 91.0101 31.5781C90.9704 31.4303 90.9284 31.2869 90.882 31.1436C90.871 31.1163 90.8621 31.089 90.8533 31.0617C90.8091 30.9343 90.765 30.8092 90.7142 30.6841C90.7142 30.6591 90.6965 30.6341 90.6855 30.609C90.628 30.4695 90.5684 30.333 90.5066 30.1996L90.4624 30.1109C90.4028 29.988 90.3431 29.8675 90.2769 29.7492L90.2504 29.7014C90.1797 29.5717 90.1024 29.4443 90.0295 29.3192C90.0096 29.2919 89.992 29.2624 89.9721 29.2328C89.8926 29.1099 89.8109 28.9871 89.7225 28.8688C89.6364 28.7505 89.5436 28.6413 89.4487 28.5208C89.4376 28.5071 89.4288 28.4912 89.4155 28.4775L89.3802 28.4389C89.3051 28.3479 89.2256 28.2592 89.1439 28.1704L89.1152 28.1386C89.0239 28.0431 88.9311 27.9498 88.8369 27.8588L88.8082 27.8292L88.7397 27.7701C88.6911 27.7246 88.6425 27.6791 88.5917 27.6359L88.4835 27.5426L88.3311 27.4175L88.2693 27.3674L88.2384 27.347C88.0992 27.2378 87.9535 27.1354 87.7966 27.0376L87.7635 27.0148L87.726 26.9921C87.5868 26.9034 87.4477 26.8192 87.3041 26.7419L87.2798 26.7282L87.2092 26.71C87.07 26.6349 86.9287 26.5667 86.7851 26.5007L86.7674 26.4825C86.6261 26.4211 86.4803 26.3642 86.3257 26.3119L86.2771 26.2914L86.2374 26.2801C86.0938 26.23 85.9503 26.1845 85.7957 26.1459H85.7692L85.5328 26.0867L77.6217 24.2669C77.4914 24.2373 77.3655 24.1986 77.2396 24.1622L77.0011 24.0894C76.9128 24.0599 76.8266 24.028 76.7405 23.9939C76.6544 23.9598 76.5837 23.9347 76.5064 23.9006C76.4291 23.8665 76.3385 23.8278 76.2568 23.7892C76.1751 23.7505 76.0956 23.7118 76.0183 23.6709L75.7974 23.5435C75.7113 23.4957 75.6274 23.4457 75.5434 23.3956L75.3358 23.2591L75.062 23.0521C74.9758 22.9884 74.8919 22.9247 74.808 22.8565L74.7329 22.7951C74.6158 22.695 74.501 22.5926 74.3906 22.4857C74.2426 22.3446 74.0968 22.1968 73.9599 22.0307L68.3148 15.6863C68.2397 15.6021 68.1646 15.5202 68.0939 15.4406L68.0321 15.3792L67.8598 15.2108C67.7759 15.1312 67.6919 15.0561 67.6058 14.9833L67.5241 14.9174L67.3319 14.765L67.3143 14.7513L67.2878 14.7331C67.1332 14.6148 66.9786 14.5056 66.8195 14.401H66.8041C66.6627 14.31 66.517 14.2235 66.3624 14.1439L66.3292 14.1235H66.3138C66.1746 14.0484 66.0333 13.9801 65.8919 13.9164L65.85 13.896L65.8102 13.8801C65.6711 13.8186 65.5297 13.764 65.3884 13.7117H65.3641L65.3199 13.6981C65.1786 13.648 65.035 13.6048 64.8915 13.5639C64.8842 13.5652 64.8767 13.5652 64.8694 13.5639C64.717 13.5229 64.5624 13.4888 64.4078 13.4592L64.3614 13.4478H64.3216C64.2024 13.4274 64.0809 13.4069 63.9616 13.3932L63.8137 13.3773C63.6966 13.3659 63.5796 13.3568 63.4625 13.3523H63.3918H63.2196C63.118 13.3523 63.0142 13.3523 62.9126 13.3523L59.105 13.5002C59.264 13.5002 59.4252 13.5002 59.5842 13.5002H59.6571C59.8228 13.5002 59.9884 13.5206 60.1541 13.5411C60.2733 13.557 60.3948 13.5752 60.5141 13.5957L60.6002 13.6139C60.7548 13.6435 60.9094 13.6776 61.0618 13.7185H61.0927C61.2363 13.7595 61.3798 13.805 61.5212 13.8528L61.5896 13.8755C61.731 13.9278 61.8723 13.9824 62.0115 14.0438L62.0932 14.0802C62.2345 14.1439 62.3759 14.2122 62.515 14.2872L62.5636 14.3145C62.7116 14.3942 62.8574 14.4806 63.0053 14.5739H63.0252C63.1842 14.6762 63.341 14.7877 63.4934 14.906L63.5376 14.9378L63.7187 15.088L63.7982 15.1517C63.8843 15.2267 63.9683 15.3041 64.0522 15.3792L64.209 15.5338L64.2885 15.6112C64.3658 15.6908 64.4431 15.7727 64.5094 15.8569L70.1589 22.19C70.2959 22.3446 70.4416 22.4925 70.5896 22.6335L70.6205 22.6677C70.7221 22.7632 70.8259 22.8542 70.9319 22.9429L71.0092 23.0043C71.0559 23.0463 71.1045 23.0857 71.155 23.1226C71.1881 23.1499 71.2257 23.1727 71.261 23.2C71.3538 23.2682 71.4465 23.3365 71.5415 23.4002C71.5812 23.4252 71.6166 23.4548 71.6541 23.4798L71.7491 23.5366C71.833 23.589 71.917 23.6367 72.0031 23.6845C72.0495 23.7118 72.0936 23.7414 72.14 23.7664L72.2328 23.8119L72.4713 23.9302L72.6215 24.003L72.7209 24.0417C72.7982 24.0758 72.8755 24.1053 72.955 24.1349C73.0345 24.1645 73.0544 24.1781 73.1052 24.1963L73.2156 24.2305L73.4541 24.3033L73.5999 24.3488L73.8362 24.4079L81.7473 26.2278C81.8357 26.2482 81.9218 26.271 82.0102 26.296C82.1559 26.3347 82.3017 26.3802 82.4519 26.4302L82.5402 26.4621C82.686 26.5144 82.8317 26.5712 82.9819 26.6349H82.9974C83.141 26.6986 83.2801 26.7692 83.4192 26.842L83.4899 26.8784C83.6335 26.9557 83.7726 27.0399 83.9118 27.1286L83.9824 27.1741C84.1304 27.2719 84.2762 27.3743 84.4241 27.4835L84.5169 27.554L84.6693 27.6814L84.7775 27.7724C84.8283 27.8156 84.8769 27.8611 84.9255 27.9066L85.0227 27.9953C85.1169 28.0863 85.2097 28.1795 85.3009 28.2751L85.3297 28.3092C85.4114 28.3957 85.4909 28.4844 85.566 28.5754L85.6367 28.6573C85.7294 28.771 85.8222 28.8847 85.9083 29.0053C85.9944 29.1236 86.0762 29.2464 86.1557 29.3693L86.2131 29.458C86.2904 29.5808 86.3677 29.7082 86.4339 29.8379L86.4604 29.8857C86.5267 30.0039 86.5886 30.1245 86.646 30.2474L86.6901 30.3361C86.752 30.4703 86.8138 30.6068 86.869 30.7455C86.8801 30.7706 86.8889 30.7956 86.9 30.8229C86.9485 30.9457 86.9927 31.0708 87.0369 31.1982L87.0656 31.2801C87.112 31.4234 87.1539 31.5667 87.1937 31.7146C87.1937 31.7465 87.2114 31.7783 87.218 31.8102C87.2533 31.9444 87.2843 32.0786 87.313 32.2151L87.3262 32.2788C87.3527 32.413 87.377 32.5495 87.3969 32.686L87.4101 32.7906C87.4234 32.8975 87.4366 33.0044 87.4477 33.1113C87.4477 33.1568 87.4477 33.2023 87.4587 33.2478C87.4698 33.2933 87.4698 33.3843 87.4742 33.4526V33.6118C87.4742 33.68 87.4742 33.7506 87.4742 33.8211C87.4742 33.8916 87.4742 33.9553 87.4742 34.0258L87.3947 42.8817L91.2023 42.7338L91.2818 33.8757V33.7847C91.2774 33.7619 91.2774 33.721 91.2752 33.6846Z" fill="url(#paint9_linear_1750_15031)"/>
<path d="M88.3358 73.7463C88.3623 73.6621 88.3888 73.5757 88.4175 73.4915C88.4462 73.4074 88.4838 73.3096 88.5191 73.2186C88.5544 73.1276 88.5876 73.0434 88.6229 72.9569C88.6583 72.8705 88.698 72.7909 88.7378 72.7067C88.7775 72.6226 88.8239 72.5225 88.8725 72.4315C88.9211 72.3405 88.952 72.2813 88.994 72.204C89.0359 72.1266 89.111 71.997 89.1729 71.8969C89.2347 71.7968 89.2965 71.6967 89.3628 71.6012L89.418 71.5238C89.5041 71.3987 89.5969 71.2781 89.6919 71.1576C89.8244 70.9892 89.9613 70.8277 90.1049 70.6708L95.8715 64.5015L92.0639 64.6493L86.2884 70.8414C86.1449 70.9961 86.008 71.1576 85.8754 71.3259C85.8754 71.3418 85.8489 71.3555 85.8379 71.3714C85.7562 71.476 85.6767 71.583 85.6016 71.6922L85.5552 71.7627C85.5132 71.8241 85.4691 71.8878 85.4293 71.9515C85.3896 72.0152 85.3873 72.0243 85.3653 72.0584C85.3034 72.1585 85.2438 72.2609 85.1864 72.3655C85.1621 72.4087 85.1334 72.4519 85.1091 72.4974C85.0848 72.5429 85.0804 72.5589 85.0649 72.5907C85.0185 72.6817 84.9743 72.7727 84.9302 72.866C84.9059 72.9206 84.8772 72.9729 84.8529 73.0275C84.8286 73.0821 84.8286 73.0866 84.8153 73.1185C84.78 73.2026 84.7469 73.2913 84.7115 73.3778C84.6762 73.4642 84.6629 73.4938 84.6408 73.553C84.6188 73.6121 84.621 73.6189 84.6099 73.6508C84.5812 73.7349 84.5547 73.8214 84.5282 73.9056C84.5017 73.9897 84.4862 74.0238 84.4708 74.083C84.4553 74.1421 84.4531 74.1581 84.4421 74.1944C84.4178 74.2809 84.3979 74.3673 84.3758 74.4561C84.3537 74.5448 84.3471 74.5698 84.3339 74.6267C84.3206 74.6835 84.3007 74.7859 84.2853 74.8655L82.6642 83.5348C82.6487 83.6258 82.6288 83.7146 82.609 83.8033C82.5736 83.9625 82.5339 84.1217 82.4897 84.2764L82.4632 84.3697C82.4168 84.5289 82.366 84.6836 82.3108 84.8383L82.2953 84.8815C82.2379 85.0362 82.1761 85.1909 82.1098 85.3365L82.0899 85.3865C82.0171 85.5481 81.9398 85.705 81.8691 85.8597L81.8337 85.9257C81.7454 86.0917 81.6504 86.2532 81.551 86.4102L81.5069 86.4807L81.381 86.6695L81.3169 86.7605C81.2551 86.8485 81.191 86.9349 81.1248 87.0199C81.0431 87.1245 80.9591 87.2246 80.8752 87.3247L80.8045 87.402C80.7317 87.4839 80.6588 87.5635 80.5837 87.6432L80.5329 87.6955L80.3827 87.8433L80.3076 87.9161C80.2325 87.9844 80.1574 88.0526 80.0868 88.1186C80.0072 88.1868 79.9277 88.2528 79.8438 88.3165L79.7621 88.3779L79.5942 88.503L79.4926 88.5713L79.3358 88.6759L79.2254 88.7464L79.0708 88.8397L78.9538 88.9057L78.7992 88.9899L78.6777 89.0535L78.5209 89.1286L78.395 89.1855L78.2382 89.2537L78.1079 89.3061L77.9466 89.3652L77.8163 89.4107L77.6529 89.4653L77.5204 89.504L77.3503 89.5495L77.2178 89.5836L77.0411 89.6222L76.913 89.6473L76.7253 89.6791L76.6038 89.6973L76.394 89.7223H76.2902C76.1842 89.7314 76.0782 89.7383 75.9722 89.7428L79.7798 89.5927C79.8858 89.5927 80.0006 89.5927 80.0978 89.5745L80.2016 89.5631L80.4092 89.5381L80.5329 89.5199L80.7206 89.488L80.8509 89.4607L81.0254 89.4243L81.1579 89.3902L81.3258 89.3447L81.4605 89.3061L81.6239 89.2515L81.7564 89.206L81.9155 89.1468L82.0458 89.0945L82.2026 89.0262L82.3285 88.9694L82.4831 88.892L82.6067 88.8306L82.7591 88.7464L82.8784 88.6805L83.0308 88.5872L83.1434 88.5167L83.298 88.412L83.4018 88.3415L83.5697 88.2187L83.6514 88.1573C83.7331 88.0913 83.8148 88.0276 83.8943 87.9594L84.1152 87.7569C84.1395 87.7319 84.1638 87.7069 84.1903 87.6841L84.3405 87.5362L84.3559 87.5226L84.3913 87.4839C84.4686 87.4043 84.5415 87.3247 84.6121 87.2428C84.6364 87.2178 84.6585 87.1905 84.6828 87.1632C84.7667 87.0654 84.8507 86.9653 84.9324 86.8606C84.9986 86.7757 85.0627 86.6893 85.1245 86.6013C85.1466 86.5717 85.1665 86.5399 85.1886 86.508L85.3145 86.3215C85.3145 86.3101 85.3299 86.2987 85.3365 86.2851L85.3586 86.251C85.458 86.094 85.553 85.9325 85.6413 85.7664L85.6546 85.7414C85.6546 85.7278 85.6678 85.7141 85.6767 85.7005C85.7562 85.5458 85.8335 85.3888 85.8975 85.225V85.2114L85.9108 85.1773C85.977 85.0271 86.0389 84.8724 86.0963 84.7223C86.0963 84.7223 86.0963 84.7018 86.1073 84.6905C86.1184 84.6791 86.1073 84.6904 86.1073 84.6791C86.1626 84.5244 86.2134 84.3674 86.2597 84.2105C86.2597 84.1923 86.2708 84.1763 86.2752 84.1604C86.2796 84.1445 86.2752 84.1308 86.2862 84.1172C86.3304 83.9625 86.3702 83.8033 86.4055 83.644V83.6122C86.4232 83.5326 86.4386 83.4552 86.4541 83.3847L88.0929 74.7086C88.1194 74.5698 88.1525 74.4356 88.1834 74.2991C88.2055 74.2104 88.2254 74.1239 88.2497 74.0375C88.274 73.951 88.3137 73.8419 88.3358 73.7463Z" fill="url(#paint10_linear_1750_15031)"/>
<path d="M97.9864 59.5515C97.9864 59.5379 97.9864 59.5265 97.9864 59.5129C97.9997 59.3218 98.0063 59.1307 98.0063 58.9396C98.0063 58.9237 98.0063 58.91 98.0063 58.8964C98.0063 58.8827 98.0063 58.8509 98.0063 58.8281C98.0063 58.7576 98.0063 58.6894 98.0063 58.6211C98.0063 58.5529 98.0063 58.5233 98.0063 58.4733C98.0063 58.4232 98.0063 58.3322 97.9909 58.2617C97.9909 58.2276 97.9909 58.1935 97.9909 58.1571C97.9909 58.1207 97.9909 58.1389 97.9909 58.1275C97.9776 57.9887 97.9622 57.8522 97.9423 57.7135C97.9423 57.6862 97.9423 57.6566 97.929 57.6293C97.9136 57.5156 97.8937 57.4018 97.8716 57.2904C97.8716 57.2699 97.8716 57.2471 97.8716 57.2267L97.8583 57.1607C97.8451 57.1015 97.8318 57.0401 97.8164 56.9787C97.8009 56.9173 97.7943 56.8763 97.781 56.824C97.7678 56.7717 97.7479 56.7035 97.7325 56.642C97.717 56.5806 97.7037 56.5419 97.6905 56.4919C97.6772 56.4419 97.653 56.3691 97.6331 56.3076C97.6132 56.2462 97.6022 56.2098 97.5845 56.162C97.5668 56.1143 97.5425 56.0392 97.5204 55.9778L97.4674 55.8345C97.4431 55.7731 97.4166 55.7116 97.3901 55.6479C97.3636 55.5842 97.3548 55.5569 97.3349 55.5115C97.315 55.466 97.2775 55.3841 97.2466 55.3226C97.2157 55.2612 97.209 55.2362 97.1869 55.1953C97.1649 55.1543 97.1185 55.0565 97.0831 54.9882C97.0633 54.9541 97.0456 54.9177 97.0279 54.8813C96.9705 54.779 96.9131 54.6766 96.8534 54.5765L92.4076 47.1583C92.3192 47.0127 92.2375 46.8626 92.158 46.7034L92.1094 46.6078C92.0343 46.46 91.9659 46.3075 91.8996 46.1529L91.8665 46.0732C91.8068 45.9299 91.7516 45.7866 91.7008 45.641C91.7008 45.616 91.6832 45.5933 91.6765 45.5682C91.6213 45.409 91.5727 45.2498 91.5286 45.0882C91.5286 45.0518 91.5109 45.0155 91.4998 44.9813C91.4579 44.8153 91.4181 44.6492 91.385 44.4809C91.3839 44.4642 91.3839 44.4475 91.385 44.4308C91.3541 44.2739 91.3298 44.1169 91.3077 43.9577L91.2878 43.7871C91.2746 43.6528 91.2613 43.5209 91.2525 43.3867C91.2525 43.3503 91.2525 43.3162 91.2525 43.2798C91.2414 43.0978 91.237 42.9181 91.2392 42.7361L87.4316 42.8839C87.4316 42.9135 87.4316 42.9454 87.4316 42.9749C87.4316 43.1251 87.4316 43.2775 87.4471 43.4299C87.4471 43.4663 87.4471 43.5027 87.4471 43.5391C87.4471 43.5755 87.4471 43.6597 87.4471 43.7188C87.4471 43.778 87.4648 43.8644 87.4736 43.9463C87.4824 44.0282 87.4846 44.06 87.4913 44.1169C87.5134 44.2761 87.5377 44.4331 87.5686 44.5901C87.5677 44.6075 87.5677 44.625 87.5686 44.6424C87.5995 44.8084 87.6392 44.9722 87.6812 45.1337C87.6923 45.1701 87.7011 45.2043 87.7099 45.2407C87.7541 45.4022 87.8027 45.5614 87.8579 45.7206C87.8579 45.7457 87.8756 45.7684 87.8822 45.7934C87.9352 45.939 87.9904 46.0823 88.0478 46.2257L88.081 46.3053C88.1472 46.46 88.2157 46.6101 88.2908 46.7602L88.3394 46.8558C88.4189 47.0082 88.5006 47.1583 88.5889 47.3107L93.0348 54.7266C93.0944 54.8267 93.1541 54.9291 93.2093 55.0337L93.2623 55.1384C93.2998 55.2066 93.3352 55.2749 93.3705 55.3454C93.4058 55.4159 93.4081 55.4296 93.4279 55.4728C93.4478 55.516 93.4876 55.5979 93.5163 55.6639C93.545 55.7298 93.5538 55.7526 93.5737 55.7981C93.5936 55.8436 93.6245 55.9232 93.6488 55.9846L93.7018 56.1279L93.7681 56.3122L93.8144 56.4578C93.8343 56.5192 93.8542 56.5806 93.8719 56.642C93.8895 56.7035 93.9006 56.7421 93.9138 56.7922C93.9271 56.8422 93.9469 56.915 93.9624 56.9742C93.9779 57.0333 93.9867 57.0788 93.9977 57.1288C94.0088 57.1789 94.0265 57.2517 94.0397 57.3131C94.053 57.3745 94.0552 57.3973 94.064 57.4405C94.0861 57.5542 94.106 57.668 94.1214 57.7794C94.1214 57.809 94.1214 57.8363 94.1347 57.8636C94.1546 58.0024 94.17 58.1389 94.1833 58.2776C94.1833 58.3231 94.1833 58.3663 94.1943 58.4118L94.2076 58.6257C94.2076 58.6734 94.2076 58.7235 94.2076 58.7713C94.2076 58.819 94.2076 58.91 94.2076 58.9783C94.2098 59.0154 94.2098 59.0526 94.2076 59.0897C94.2076 59.2808 94.2009 59.4719 94.1877 59.663V59.7494C94.1722 59.9269 94.1546 60.1043 94.1303 60.2795L94.117 60.3545C94.0905 60.5274 94.0596 60.7026 94.0242 60.8732C93.9867 61.0393 93.9447 61.203 93.9006 61.3668C93.9006 61.3941 93.8851 61.4237 93.8763 61.451C93.8299 61.6057 93.7813 61.7604 93.7283 61.906L93.6952 61.9947C93.6377 62.1516 93.5759 62.3063 93.5074 62.4496L93.492 62.486C93.4191 62.6453 93.344 62.8045 93.2711 62.9592C93.2625 62.9729 93.2551 62.9873 93.249 63.0024C93.1585 63.1708 93.0591 63.3368 92.9575 63.5006L92.9178 63.5643C92.8802 63.6234 92.8405 63.6803 92.8007 63.7372C92.7609 63.7941 92.7499 63.8123 92.7234 63.8509L92.5865 64.0375C92.5622 64.067 92.5423 64.0989 92.518 64.1285C92.4937 64.158 92.423 64.2467 92.3744 64.3036C92.3259 64.3605 92.3281 64.3628 92.3038 64.3901C92.2287 64.4765 92.1536 64.5629 92.0829 64.6448L95.8905 64.497C95.9678 64.4151 96.0429 64.3286 96.1114 64.2422C96.1357 64.2149 96.1577 64.1853 96.182 64.1558C96.2063 64.1262 96.2792 64.0397 96.3256 63.9806L96.3874 63.8987L96.5244 63.7122L96.6017 63.5984C96.6414 63.5416 96.6812 63.4847 96.7187 63.4255C96.7238 63.4159 96.7297 63.4068 96.7364 63.3982C96.7364 63.3869 96.7496 63.3732 96.7585 63.3618C96.8601 63.1981 96.9595 63.032 97.05 62.8614V62.85C97.0543 62.8397 97.0595 62.8298 97.0655 62.8204C97.1472 62.6657 97.2223 62.5065 97.2863 62.3473C97.2863 62.3473 97.2863 62.3291 97.2974 62.32C97.3658 62.1653 97.4277 62.0106 97.4851 61.8536L97.505 61.8036C97.505 61.7922 97.505 61.7786 97.516 61.7649C97.5712 61.6125 97.6198 61.4601 97.6662 61.31C97.6689 61.299 97.6726 61.2883 97.6772 61.2781C97.6772 61.2599 97.6772 61.2417 97.6883 61.2258C97.7347 61.062 97.7766 60.8982 97.812 60.7322C97.8473 60.5593 97.8782 60.3864 97.9047 60.2135C97.9047 60.1976 97.9047 60.1816 97.9047 60.1635C97.9057 60.1551 97.9057 60.1467 97.9047 60.1384C97.9312 59.961 97.9489 59.7858 97.9644 59.6084C97.982 59.5834 97.9864 59.5674 97.9864 59.5515Z" fill="url(#paint11_linear_1750_15031)"/>
<path d="M93.0195 54.7255C94.9078 57.8761 94.5036 62.039 92.0543 64.6596L86.2877 70.8425C85.2564 71.9563 84.5606 73.3541 84.2845 74.8667L82.6634 83.536C81.9766 87.2167 79.0038 89.835 75.5739 89.7781L68.4358 89.6507L67.4971 89.6348C66.0619 89.6162 64.6574 90.0626 63.4819 90.911L56.7436 95.7586C56.2676 96.1009 55.7519 96.3806 55.2086 96.5912C54.1984 96.9835 53.1112 97.1193 52.0393 96.987C50.3621 96.7742 48.8157 95.9455 47.684 94.653L42.0322 88.2836C41.0539 87.1811 39.7714 86.4135 38.3571 86.0838L37.4384 85.8723L30.4482 84.264C27.089 83.4928 24.6882 80.2171 24.7236 76.4568L24.8053 67.5987C24.8217 66.0422 24.4114 64.5125 23.6215 63.1855L19.1844 55.7605C17.2961 52.6122 17.7003 48.447 20.1496 45.8264L25.9162 39.6571C26.9485 38.5432 27.6444 37.1444 27.9194 35.6307L29.5405 26.9614C30.2296 23.2807 33.2001 20.6624 36.6278 20.7193L44.7024 20.8512C46.1382 20.8723 47.5437 20.4247 48.7176 19.5728L55.4471 14.7297C56.8145 13.7366 58.4897 13.2984 60.1514 13.499C61.8289 13.7122 63.3754 14.5418 64.5067 15.8352L70.1585 22.1911C71.1335 23.3025 72.4176 24.077 73.8358 24.409L81.7469 26.2289C85.1039 27.0023 87.5046 30.2758 87.4693 34.0383L87.3898 42.8942C87.3713 44.4516 87.7817 45.9826 88.5736 47.3096L93.0195 54.7255ZM53.5831 81.1133C66.6137 82.7057 78.2927 72.4144 79.6819 58.1377C81.0711 43.861 71.6338 30.9741 58.6076 29.3818C45.5814 27.7894 33.9002 38.0852 32.5132 52.3619C31.1262 66.6387 40.5591 79.5164 53.5831 81.1065" fill="url(#paint12_linear_1750_15031)"/>
<path d="M93.0195 54.7255C94.9078 57.8761 94.5036 62.039 92.0543 64.6596L86.2877 70.8425C85.2564 71.9563 84.5606 73.3541 84.2845 74.8667L82.6634 83.536C81.9766 87.2167 79.0038 89.835 75.5739 89.7781L68.4358 89.6507L67.4971 89.6348C66.0619 89.6162 64.6574 90.0626 63.4819 90.911L56.7436 95.7586C56.2676 96.1009 55.7519 96.3806 55.2086 96.5912C54.1984 96.9835 53.1112 97.1193 52.0393 96.987C50.3621 96.7742 48.8157 95.9455 47.684 94.653L42.0322 88.2836C41.0539 87.1811 39.7714 86.4135 38.3571 86.0838L37.4384 85.8723L30.4482 84.264C27.089 83.4928 24.6882 80.2171 24.7236 76.4568L24.8053 67.5987C24.8217 66.0422 24.4114 64.5125 23.6215 63.1855L19.1844 55.7605C17.2961 52.6122 17.7003 48.447 20.1496 45.8264L25.9162 39.6571C26.9485 38.5432 27.6444 37.1444 27.9194 35.6307L29.5405 26.9614C30.2296 23.2807 33.2001 20.6624 36.6278 20.7193L44.7024 20.8512C46.1382 20.8723 47.5437 20.4247 48.7176 19.5728L55.4471 14.7297C56.8145 13.7366 58.4897 13.2984 60.1514 13.499C61.8289 13.7122 63.3754 14.5418 64.5067 15.8352L70.1585 22.1911C71.1335 23.3025 72.4176 24.077 73.8358 24.409L81.7469 26.2289C85.1039 27.0023 87.5046 30.2758 87.4693 34.0383L87.3898 42.8942C87.3713 44.4516 87.7817 45.9826 88.5736 47.3096L93.0195 54.7255ZM53.5831 81.1133C66.6137 82.7057 78.2927 72.4144 79.6819 58.1377C81.0711 43.861 71.6338 30.9741 58.6076 29.3818C45.5814 27.7894 33.9002 38.0852 32.5132 52.3619C31.1262 66.6387 40.5591 79.5164 53.5831 81.1065" fill="url(#paint13_angular_1750_15031)"/>
<defs>
<linearGradient id="paint0_linear_1750_15031" x1="29.4345" y1="115.748" x2="29.4345" y2="117.787" gradientUnits="userSpaceOnUse">
<stop stop-color="#802525"/>
<stop offset="1" stop-color="#802525"/>
</linearGradient>
<linearGradient id="paint1_linear_1750_15031" x1="47.1392" y1="104.172" x2="47.1392" y2="128.016" gradientUnits="userSpaceOnUse">
<stop stop-color="#840000"/>
<stop offset="1" stop-color="#BB1212"/>
</linearGradient>
<linearGradient id="paint2_linear_1750_15031" x1="45.1431" y1="90.3458" x2="31.1716" y2="118.519" gradientUnits="userSpaceOnUse">
<stop stop-color="#D21616"/>
<stop offset="1" stop-color="#D35B5B"/>
</linearGradient>
<linearGradient id="paint3_linear_1750_15031" x1="64.6044" y1="119.845" x2="64.6044" y2="130.439" gradientUnits="userSpaceOnUse">
<stop stop-color="#720000"/>
<stop offset="1" stop-color="#942B2B"/>
</linearGradient>
<linearGradient id="paint4_linear_1750_15031" x1="74.9831" y1="89.5017" x2="74.9831" y2="123.799" gradientUnits="userSpaceOnUse">
<stop stop-color="#D53E3E"/>
<stop offset="1" stop-color="#FF6464"/>
</linearGradient>
<linearGradient id="paint5_linear_1750_15031" x1="74.9831" y1="89.5017" x2="74.9831" y2="123.799" gradientUnits="userSpaceOnUse">
<stop stop-color="#D53E3E"/>
<stop offset="1" stop-color="#FF6464"/>
</linearGradient>
<linearGradient id="paint6_linear_1750_15031" x1="64.5375" y1="89.6238" x2="64.5375" y2="130.445" gradientUnits="userSpaceOnUse">
<stop stop-color="#9C0808"/>
<stop offset="1" stop-color="#C43939"/>
</linearGradient>
<linearGradient id="paint7_linear_1750_15031" x1="56.0974" y1="29.2185" x2="78.4564" y2="68.6857" gradientUnits="userSpaceOnUse">
<stop stop-color="#ED94FF"/>
<stop offset="0.510182" stop-color="#FAE9EA"/>
<stop offset="1" stop-color="#8C9FFF"/>
</linearGradient>
<linearGradient id="paint8_linear_1750_15031" x1="39.6434" y1="34.8379" x2="57.958" y2="66.4126" gradientUnits="userSpaceOnUse">
<stop stop-color="#5084E6"/>
<stop offset="1" stop-color="#8A3CF9"/>
</linearGradient>
<linearGradient id="paint9_linear_1750_15031" x1="64.033" y1="16.5409" x2="73.4375" y2="35.9217" gradientUnits="userSpaceOnUse">
<stop stop-color="#5084E6"/>
<stop offset="1" stop-color="#8A3CF9"/>
</linearGradient>
<linearGradient id="paint10_linear_1750_15031" x1="79.0198" y1="67.227" x2="88.4881" y2="81.3441" gradientUnits="userSpaceOnUse">
<stop stop-color="#5084E6"/>
<stop offset="1" stop-color="#8A3CF9"/>
</linearGradient>
<linearGradient id="paint11_linear_1750_15031" x1="89.0512" y1="45.1018" x2="97.8969" y2="53.1766" gradientUnits="userSpaceOnUse">
<stop stop-color="#5084E6"/>
<stop offset="1" stop-color="#8A3CF9"/>
</linearGradient>
<linearGradient id="paint12_linear_1750_15031" x1="29.6709" y1="22.4769" x2="59.085" y2="73.1938" gradientUnits="userSpaceOnUse">
<stop stop-color="#5084E6"/>
<stop offset="1" stop-color="#8A3CF9"/>
</linearGradient>
<radialGradient id="paint13_angular_1750_15031" cx="0" cy="0" r="1" gradientUnits="userSpaceOnUse" gradientTransform="translate(55.902 55.5192) rotate(89.7253) scale(41.6676 45.73)">
<stop stop-color="#8C9FFF"/>
<stop offset="0.1875" stop-color="#ED94FF"/>
<stop offset="0.4375" stop-color="#FAE9EA"/>
<stop offset="1" stop-color="#8C9FFF"/>
</radialGradient>
</defs>
</svg>
