<svg width="25" height="24" viewBox="0 0 25 24" fill="none" xmlns="http://www.w3.org/2000/svg">
<path d="M18.5 8C20.1569 8 21.5 6.65685 21.5 5C21.5 3.34315 20.1569 2 18.5 2C16.8431 2 15.5 3.34315 15.5 5C15.5 6.65685 16.8431 8 18.5 8Z" fill="#BDC2FF"/>
<path d="M6.5 6C7.60457 6 8.5 5.10457 8.5 4C8.5 2.89543 7.60457 2 6.5 2C5.39543 2 4.5 2.89543 4.5 4C4.5 5.10457 5.39543 6 6.5 6Z" fill="#BDC2FF"/>
<path d="M2 16.4197C2 14.89 3.67635 13.8748 5.09777 14.44C7.03307 15.2094 9.60438 16 12 16C14.3956 16 16.9669 15.2094 18.9022 14.44C20.3237 13.8748 22 14.89 22 16.4197V22C22 23.1046 21.1046 24 20 24H4C2.89543 24 2 23.1046 2 22V16.4197Z" fill="#BDC2FF"/>
<path d="M7.13573 13.662C8.6691 14.1362 10.375 14.5 12 14.5C13.625 14.5 15.3309 14.1362 16.8643 13.662C16.953 13.2891 17 12.9001 17 12.5C17 9.73858 14.7614 7.5 12 7.5C9.23858 7.5 7 9.73858 7 12.5C7 12.9001 7.04698 13.2891 7.13573 13.662Z" fill="#BDC2FF"/>
</svg>
