<svg width="25" height="24" viewBox="0 0 25 24" fill="none" xmlns="http://www.w3.org/2000/svg">
<g clip-path="url(#clip0_2685_23411)">
<path d="M14.3019 7.7832C13.5218 7.7832 12.8872 8.41788 12.8872 9.1979C12.9583 11.0721 15.6458 11.0716 15.7166 9.1979C15.7166 8.41788 15.082 7.7832 14.3019 7.7832Z" fill="#BDC2FF"/>
<path d="M17.0649 0.825492L17.2073 1.63937C17.6017 4.02813 19.4717 5.89812 21.8604 6.29249L22.6781 6.42199C23.7047 3.0303 23.4643 0.550994 23.4975 0.00223307C22.9406 0.0360443 20.4549 -0.203087 17.0649 0.825492Z" fill="#BDC2FF"/>
<path d="M15.8121 1.87324L15.7102 1.29053C10.2723 3.37876 5.47186 7.98421 4.01812 13.6096C4.01812 13.6096 3.49993 15.9995 5.50018 17.9997C7.50044 20 9.89038 19.4818 9.89038 19.4818C15.4433 18.0469 20.0931 13.3088 22.2129 7.78069L21.6346 7.68911C18.6441 7.19538 16.3065 4.85868 15.8121 1.87324ZM14.3021 12.0272C12.7419 12.0272 11.4727 10.758 11.4727 9.19783C11.6149 5.44941 16.9898 5.45044 17.1315 9.19788C17.1315 10.758 15.8622 12.0272 14.3021 12.0272Z" fill="#BDC2FF"/>
<path d="M10.7651 20.7072V23.3447H11.4725C15.9243 23.3447 19.2522 19.5426 19.2533 15.2229C16.9248 17.7823 13.9924 19.7553 10.7651 20.7072Z" fill="#BDC2FF"/>
<path d="M8.27685 4.24634C3.94797 4.24747 0.155029 7.58328 0.155029 12.0271V12.7345H2.79259C3.74638 9.50094 5.72276 6.57002 8.27685 4.24634Z" fill="#BDC2FF"/>
<path d="M2.96983 16C1.12453 17.7443 0.773151 20.5961 0.5 23C3.1996 22.726 5.53086 22.4284 7.5 20.5673C7.5 20.5673 5.85112 20.278 4.61584 19.1105C3.38057 17.9431 2.96983 16 2.96983 16Z" fill="#BDC2FF"/>
</g>
<defs>
<clipPath id="clip0_2685_23411">
<rect width="24" height="24" fill="white" transform="translate(0.5)"/>
</clipPath>
</defs>
</svg>
