<svg width="25" height="24" viewBox="0 0 25 24" fill="none" xmlns="http://www.w3.org/2000/svg">
<path fill-rule="evenodd" clip-rule="evenodd" d="M16.7175 12.6694C15.0607 12.6694 13.7175 14.0126 13.7175 15.6694C13.7175 17.3263 15.0607 18.6694 16.7175 18.6694C18.3744 18.6694 19.7175 17.3263 19.7175 15.6694C19.7175 14.0126 18.3744 12.6694 16.7175 12.6694ZM9.71753 15.6694C9.71753 11.8034 12.8515 8.66943 16.7175 8.66943C20.5835 8.66943 23.7175 11.8034 23.7175 15.6694C23.7175 19.5354 20.5835 22.6694 16.7175 22.6694C12.8515 22.6694 9.71753 19.5354 9.71753 15.6694Z" fill="#BDC2FF"/>
<path d="M8.50569 15.7874C8.50231 15.6919 8.50061 15.596 8.50061 15.4997C8.50061 11.4367 11.5296 8.08109 15.4528 7.56798C14.8758 4.28341 12.0087 1.7876 8.55836 1.7876C4.69249 1.7876 1.55859 4.92149 1.55859 8.78737C1.55859 12.6361 4.66406 15.7591 8.50569 15.7874Z" fill="#BDC2FF"/>
</svg>
